<svg xmlns="http://www.w3.org/2000/svg" width="600" height="660" fill="none" viewBox="0 0 600 660"><g clip-path="url(#a)"><path fill="#fff" stroke="#000" stroke-width="3" d="M598.5 260.728C598.5 546.18 300 658.5 300 658.5S144.956 600.158 58.349 460.712l14.667-2.243c16-2.517 48-7.553 66.519-26.072 18.517-18.518 23.553-50.518 42.071-69.036s50.518-23.553 69.037-42.072c18.518-18.518 23.553-50.518 42.071-69.036s50.519-23.554 69.037-42.072 23.553-50.518 42.071-69.036c18.519-18.519 50.519-23.554 69.037-42.072s23.553-50.518 42.071-69.036c18.519-18.519 50.519-23.554 66.518-26.072L598.5 2.177z"/><path fill="#3584e4" stroke="#000" stroke-width="3" d="M1.5 2.177h597l-17.052 1.788c-15.999 2.518-47.999 7.553-66.518 26.072s-23.553 50.518-42.071 69.036-50.518 23.553-69.037 42.072c-18.518 18.518-23.553 50.518-42.071 69.036s-50.519 23.554-69.037 42.072-23.553 50.518-42.071 69.036c-18.519 18.519-50.519 23.554-69.037 42.072s-23.554 50.518-42.071 69.036c-18.519 18.519-50.52 23.555-66.519 26.072l-14.667 2.243C24.786 406.672 1.5 340.453 1.5 260.728z"/><mask id="b" width="545" height="661" x="55" y="0" maskUnits="userSpaceOnUse" style="mask-type:alpha"><path fill="#26a269" stroke="#000" stroke-width="3" d="M598.5 260.728C598.5 546.18 300 658.5 300 658.5S144.956 600.158 58.349 460.712l14.667-2.243c16-2.517 48-7.553 66.519-26.072 18.517-18.518 23.553-50.518 42.071-69.036s50.518-23.553 69.037-42.072c18.518-18.518 23.553-50.518 42.071-69.036s50.519-23.554 69.037-42.072 23.553-50.518 42.071-69.036c18.519-18.519 50.519-23.554 69.037-42.072s23.553-50.518 42.071-69.036c18.519-18.519 50.519-23.554 66.518-26.072L598.5 2.177z"/></mask><g mask="url(#b)"><path fill="#3584e4" d="M443.248 315.718c-4.457 2.063-8.575 7.601-9.267 12.278-1.155 5.238-.398 10.314-2.886 15.155-.585 1.165-3.816 4.136-4.431 5.104 1.099 1.787 5.256 3.312 6.996 1.8 4.314-3.508 8.796-11.184 11.453-15.971-.631-.981-3.414-.151-3.55-1.746-.656-2.009 1.988-5.177 2.015-6.975-1.367.027-3.185 2.778-4.072 1.108-.861-2.317 1.554-4.165 2.377-6.127.498-1.141.003-1.559-.107-2.808-.077-.061 1.57-1.831 1.472-1.818m-87.722 80.966c-.303 2.22 2.574 7.602 3.048 9.809 4.437 12.248 6.163 25.67 3.754 38.534-2.738 9.45-6.295 17.112-10.307 26.076-7.509 15.715-18.763 30.31-26.583 45.861-4.647 8.52-9.114 17.772-14.301 25.968 1.71 1.414 5.374 1.005 6.392 3.429-.093 2.23-3.234 1.356-4.64 1.166-2.049-.342-4.449-2.747-5.265.099-.878 1.669-4.604 4.68-4.603 6.628 3.761 2.562 9.571 3.216 13.977 3.434 3.68-.217 6.617-5.232 7.838-8.101 1.839-4.545 1.294-8.578 3.544-12.9 1.882-2.284 4.997-1.403 7.375-2.17.264-4.918.928-9.378 2.76-14.055 4.237-11.375 10.928-22.934 17.803-32.85 9.802-13.67 21.83-27.09 31.88-40.562 1.922-3.844-1.01-7.199-.485-11.182.021-4.939 1.012-10.868 1.405-15.728-9.865-7.042-21.186-13.673-30.475-21.503-.406-.185-2.632-2.041-3.117-1.953m27.003 40.689c1.975.778 1.884 3.668 1.857 5.498-.147 4.277-2.361 8.61-6.398 10.318-.547.043-3.624 2.519-2.84 1.047 2.576-5.146 5.935-10.447 5.142-16.474.744-.132 1.482-.358 2.239-.389m-59.261-51.577c-2.687-.206-3.708 6.275-5.265 7.799-1.285 1.726 8.475 1.902 9.647 2.468 8.588 1.615 13.414 1.87 22.01-.399 1.19.053 2.887-1.752 1.243-2.987-1.514-1.058-3.662-.297-5.359-.996-7.149-1.197-15.268-4.095-22.276-5.885"/><path fill="#3584e4" d="M285.863 212.866c-.734 1.596.197 3.729.238 5.477 1.149 6.762.665 14.055-2.108 20.344-1.598 1.204-2.608-1.521-3.227-2.573-2.758-5.477-5.385-11.592-10.611-15.096-1.149 1.264-.748 3.558-1.117 5.209-.888 8.566-.344 17.596-3.578 25.702-1.373 2.513-2.512 5.7-4.951 7.287-2.02-.022-1.916-2.893-2.713-4.188-2.113-6.369-4.306-12.965-8.571-18.236-1.334.699-1.45 2.852-2.24 4.076-3.818 8.937-6.461 18.871-13.25 26.092-1.009.899-2.339-.02-2.258-1.345-2.782-8.222-3.551-17.349-8.198-24.855-1.209-.483-2.059 1.5-2.934 2.095-6.509 7.057-12.085 14.981-18.848 21.757-1.696.883-2.754-1.648-2.928-2.962-1.779-9.352.16-18.995 2.469-28.098.191-.622 1.309-2.68-.273-2.005-8.471 5.958-15.517 13.926-23.605 20.394-1.756.034-1.786-2.108-1.288-3.345 2.243-12.289 7.198-23.911 12.606-35.055-1.117-.747-2.581.947-3.704 1.266-3.263 1.463-5.883 3.994-7.155 7.371-3.378 6.681-6.067 13.789-6.643 21.322-1.177 8.391-.206 16.999.933 25.267 8.074 1.862 16.588 3.718 24.778 1.514 1.307-.535 2.997 1.489 1.256 2.182-6.996 3.386-14.977 1.099-22.277.026-13.905-2.66-27.289-8.141-41.515-9.045-4.727-.004-9.499 1.942-12.216 5.919-6.952 8.1-14.084 16.22-18.953 25.799-3.564 6.73-11.229 11.874-15.196 18.288-3.344 6.675-2.114 14.339-3.483 21.582.092 1.535-2.49 4.799-1.581 6.171 1.788.279 4.906-2.739 6.79-2.504 1.317-.346 3.436.845 2.253 2.268-2.208 2.404-5.773 3.59-7.656 6.275.03 3.305-.297 7.995 1.06 11.065 4.838-1.7 8.9-7.204 12.216-11.066 1.024-1.614 3.435-3.06 1.896-5.119-2.58-5.04 1.353-11.348 5.83-14.481 2.196-1.01.547-2.433-.871-4.116-2.811-7.568.294-15.823 4.27-22.373 4.896-8.811 12.417-16.612 22.229-19.839 2.931-.87 6.042-2.025 9.04-.664 16.686 3.614 29.504 15.633 44.268 23.374 8.366 4.424 16.756 8.974 25.573 12.402 5.713 1.439 12.582.473 16.293-4.487 1.46-1.304 1.884-3.197 2.794-4.79.557-.971 1.856-1.342 2.275-.069.522 2.574-1.474 5.002-2.965 6.942-2.977 3.674-7.549 5.738-12.294 5.797-1.203.463-5.729-1.696-6.696-.834.838 2.321 5.284 5.743 6.952 7.484 12.878 9.13 27.468 16.946 41.049 24.997 19.644 11.106 38.302 23.077 59.411 31.227 9.628 3.718 23.258 5.811 33.405 7.597-.391-1.932-4.785-4.942-5.742-6.924-2.18-3.939-4.851-7.891-5.985-12.3.239-1.415 2.178-1.291 2.637-.063 2.84 5.419 5.471 11.128 9.334 15.986 8.437 11.449 20.645 19.24 32.49 26.671 7.111 4.583 13.849 9.733 19.108 16.379 5.874 6.878 9.623 12.545 12.036 21.421 3.291 10.06 5.521 20.812 4.749 31.405-1.164 19.643-3.751 39.183-6.677 58.626-1.215 6.601-1.649 15.188-5.28 20.893-1.098 1.824-3.41 3.181-3.859 5.257 2.162 1.343 4.867.125 7.146.332 1.537.723-.3 2.131-1.616 2.461-3.148 1.897-5.595-.676-8.808-1.146-2.659 1.391-6.487 4.004-8.427 6.281.001 1.275 2.798 3.874 3.591 4.325 3.794.383 9.674.667 13.453-.326 5.817-1.604 6.434-9.235 8.307-14.258 1.332-3.956 4.001-7.474 8.095-9.207 2.733-1.449.836-7.574 1.093-9.985.421-12.727 3.585-24.682 5.015-37.319 2.287-18.245 4.249-33.612 8.766-51.453 1.119-3.275 2.063-8.334-.751-11.017-10.145-11.513-17.35-26.945-20.82-41.787-2.544-11.96-.976-23.563 1.472-35.507 2.254-7.466 5.149-14.516 7.822-21.785 1.333-10.838-4.186-22.125-12.105-28.995-12.955-11.287-29.64-19.236-44.394-27.856-13.11-7.305-27.095-14.391-38.752-23.882-8.909-7.016-18.152-13.823-26.682-21.189-7.755-8.457-12.705-18.932-17.098-29.443-.64-.878-.889-2.784-2.099-3.018M425.6 443.125c3.646.697 8.821 1.286 9.745 5.645.75 3.826-.804 7.776-2.853 10.96-3.233-.004-2.408-2.622-2.12-4.9.062-2.654 1.059-5.951-1.382-7.88-1.138-1.366-2.579-2.512-3.689-3.869z"/><path fill="#3584e4" d="M144.5 224.606c-11.332 3.435-23.073 5.935-33.596 11.56-7.249 3.859-15.76 4.299-22.96 8.173-6.338 4.602-12.037 10.195-17.082 16.179-.594.554-1.289 2.018.23 1.872 2.123.658 5.975.71 6.149 3.602-1.693 1.621-5.21-.009-7.368.474-2.574.073-5.849.89-6.8 3.642-.87 2.011-2.882 5.545-2.563 7.749 6.3.834 14.795-.725 20.595-3.1 1.8-1.89.289-5.436 2.229-7.322 2.799-3.675 8.046-3.611 12.445-3.472.657-2.841.53-7.134 2.626-9.44 4.127-5.879 10.704-9.874 17.871-10.776 9.36-1.642 18.823-3.406 28.358-2.87 3.716.278 4.676 4.093 7.015 6.482 4.961 5.933 8.409 12.641 12.384 19.225.659.721 4.558 2.471 5.412 1.879-.566-8.292-1.485-19.389-.398-27.689-.383-3.833-4.635-4.679-6.959-7.488-3.991-3.904-8.527-8.086-14.46-8.237zm80.633-142.173c-2.355 1.664-4.001 4.404-4.73 7.143 2.153 1.056 4.914.903 7.306.929 4.837-.879 11.794-4.29 16.475-5.771-1.597-1.045-7.347-.436-9.467-.972-3.193-.423-6.396-1.005-9.584-1.329"/><path fill="#3584e4" d="M243.837 76.699c-14.906-1.258-29.216 4.78-44.022 5.163-6.949.432-13.898-.737-20.807-.772-1.279.207-9.239-2.152-8.675-1.93 1.826 1.138 10.779 7.34 8.642 7.834-1.297.637-2.284-.65-3.4-.832-2.117.44-4.204 1.666-4.811 3.809-1.719 2.355 4.795-8.605 5.31-10.94-.767-.985-11.926 5.778-12.195 6.371-.642 1.958-1.543 7.54-.988 9.584 4.824-.232 9.88-2.678 14.675-.685 1.51.455 3.789 2.513 1.86 3.85-3.559 1.628-10.385.204-14.14 1.32-.897-.045.705 3.044 2.066 3.777 4.264 1.511 8.472-.828 12.894.021 9.138 1.046 18.521 2.591 26.36 7.695 5.962 3.387 10.816 8.594 16.853 11.833 2.355.134 3.839-2.444 6.08-2.923 1.433-.691 2.572.933 1.807 2.192-1.473 4.367-6.556 6.757-11.001 5.464-3.828 7.24-8.152 14.4-11.746 21.839-4.206 8.516-8.909 16.786-15.257 23.909-4.701 6.129-12.975 14.441-16.931 21.064.719.68 5.266-3.235 6.093-3.421 4.016-2.268 7.603-5.483 11.888-7.137 1.782-.053 1.761 2.168.798 3.158-8.193 10.734-20.432 21.89-26.84 33.83.968.804 4.412-1.395 5.381-1.72 5.238-3.131 10.585-8.203 16.608-9.611 1.625-.447 2.386.978 1.122 2.44-5.207 10.474-11.487 24.752-14.054 36.215.091 1.571 3.955-3.794 4.497-4.12 6.969-6.074 13.434-13.124 21.641-17.449.931-.618 2.99-.599 2.604.985-1.219 4.409-5.009 9.841-5.354 14.483-.608 6.148-1.333 13.192.158 19.324.64 1.454 2.157-2.895 2.766-3.305 6.612-7.398 12.312-15.746 19.84-22.191 1.344-1.018 1.575 2.406 1.835 3.323 1.404 4.577 3.456 9.058 4.394 13.785 1.058 3.33 1.311 8.492 2.884 11.561 1.806-1.15 3.951-4.986 5.086-6.792 3.851-7.719 5.675-17.554 9.986-25.023 1.338-1.209 2.604 1.151 3.392 1.934 4.439 5.307 5.286 13.147 7.744 19.509.577 1.566 3.825.826 3.926-.15 3.949-8.662 2.299-20.575 3.534-29.799.507-2.315.058-5.288 1.636-7.147 2.579-.357 4.484 2.288 6.359 3.709 3.614 3.167 5.175 10.542 7.701 14.53 1.118-.131 2.279-6.245 2.635-7.068.901-8.123-1.544-15.635-1.756-23.716-1.595-12.202-8.642-23.262-7.324-35.786.821-16.654 2.472-33.327 1.23-50.01-.306-4.462-.307-9.036-.818-13.427-3.138-1.337-6.79-.771-9.902-1.971-.923-1.632 1.619-2.618 2.897-2.821 5.796-.328 11.778 3.291 17.571 3.679 8.118.552 16.624-1.862 23.444-6.146.713-.733 2.099-2.727 1.771-3.932-7.172-7.69-16.579-12.235-26.941-11.897-7.329.92-15.224 6.304-22.433 7.456-2.067.029-3.24-3.1-1.112-3.999 1.081-.904 3.109-.715 3.854-1.735-4.115-2.811-9.856.544-13.799-2.769-2.327-1.75-4.318-4.428-7.516-4.422m48.612 9.222c3.682.76 8.767 1.527 10.226 5.48 1.054 3.268-2.046 5.923-4.967 6.676-6.359 1.824-13.675 1.637-19.749-1.149-1.465-.411-2.26-2.565-.52-3.14 2.086.22 3.887 1.872 6.094 2.004 4.948.805 10.456 1.055 14.998-1.293 2.008-.988 1.12-3.745-.816-4.178-6.446-2.852-13.905-2.45-20.311.22-1.519.955-3.232-1.475-1.406-2.204 5.004-2.605 10.893-3.484 16.451-2.416m-54.446-4.509c3.591.774 7.618.652 10.85 2.471 1.552 1.815-.623 4.13-2.643 3.83-5.036-.487-9.451 2.792-14.009 4.402-4.235 2.453-9.184.978-13.673.04-.794-.294-2.772-.364-1.753-1.67 1.677-4.044 4.408-7.756 8.98-9.21 4.418-.002 7.846-.376 12.248.137"/><path stroke="#000" stroke-linecap="round" stroke-width="3" d="M173.055 270.551c3.486.807 6.857 1.449 9.984 1.777 1.082-.001 5.996 1.626 14.318-.789m39.074-188.984c3.71.88 8.033.49 11.409 2.259.9 2.464-3.519.902-4.853 1.528-5.432.962-10.04 4.779-15.396 5.838-3.102-.223-6.634-.465-9.378-1.59 1.735-3.548 4.073-7.478 8.406-8.457 3.632.526 6.18-.104 9.812.422Zm-59.567.632c4.548-.062 2.037 4.578-.247 1.493-2.153-.637-5.487 1.958-7.334 2.885 2.108 3.82-4.178 1.108-.845-1.947 3.12-1.729 4.852-2.014 8.426-2.431Z" opacity=".99"/><path fill="#3584e4" d="M251.328 65.825s5.471 4.499 14.112.952c10.59-4.346 14.967-6.46 23.931-16.771 4.756-5.47 11.058-11.535 14.972-14.41 6.977-5.122 22.764-14.515 23.494-13.977.227.167-5.587 6.123-12.92 13.237-13.516 13.11-17.693 17.984-16.858 19.677 1.141 2.312 15.111-.657 25.045-5.324 3.633-1.707 6.335-4.072 11.37-9.952 5.254-6.139 8.569-8.99 16.226-13.957 9.842-6.386 16.389-10.739 11.899-6.732-4.363 3.894-15.156 16.577-16.186 19.19-2.44 6.191-.428 7.8 8.4 6.716 6.897-.846 10.998-2.325 18.043-8.884 7.195-6.698 19.655-10.765 20.306-11.224 1.561-1.1-2.438 2.876-7.371 7.568-8.987 8.549-11.595 12.802-6.492 13.954 4.391.991 9.076-.193 14.854-3.755 4.299-2.65 7.672-4.565 13.019-5.562 7.419-1.383 16.404.265 15.232.33-.466.027-2.555 1.29-5.787 2.015-10.708 2.4-20.672 8.199-20.283 11.289-.157 1.197 2.39 4.407 6.263 5.543 9.99 2.932 18.271 9.776 22.801 17.11-6.163-2.982-13.277-6.6-22.392-10.015-32.962-13.299-69.484-10.377-127.605 12.414.397-.122-8.846 4.557-9.118 4.357m-15.189-13.883c-11.155-6.91-29.417-25.024-33.53-20.462-3.268 3.626 36.125 35.02 36.125 35.02 3.861 1.127 7.71 2.287 12.916-.798"/><path stroke="#000" stroke-linecap="round" stroke-width="3" d="M251.328 65.825s5.471 4.499 14.112.952c10.59-4.346 14.967-6.46 23.931-16.771 4.756-5.47 11.058-11.535 14.972-14.41 6.977-5.122 22.764-14.515 23.494-13.977.227.167-5.587 6.123-12.92 13.237-13.516 13.11-17.693 17.984-16.858 19.677 1.141 2.312 15.111-.657 25.045-5.324 3.633-1.707 6.335-4.072 11.37-9.952 5.254-6.139 8.569-8.99 16.226-13.957 9.842-6.386 16.389-10.739 11.899-6.732-4.363 3.894-15.156 16.577-16.186 19.19-2.44 6.191-.428 7.8 8.4 6.716 6.897-.846 10.998-2.325 18.043-8.884 7.195-6.698 19.655-10.765 20.306-11.224 1.561-1.1-2.438 2.876-7.371 7.568-8.987 8.549-11.595 12.802-6.492 13.954 4.391.991 9.076-.193 14.854-3.755 4.299-2.65 7.672-4.565 13.019-5.562 7.419-1.383 16.404.265 15.232.33-.466.027-2.555 1.29-5.787 2.015-10.708 2.4-20.672 8.199-20.283 11.289-.157 1.197 2.39 4.407 6.263 5.543 9.99 2.932 18.271 9.776 22.801 17.11-6.163-2.982-13.277-6.6-22.392-10.015-32.962-13.299-69.484-10.377-127.605 12.414.397-.122-8.846 4.557-9.118 4.357m-15.189-13.883c-11.155-6.91-29.417-25.024-33.53-20.462-3.268 3.626 36.125 35.02 36.125 35.02 3.861 1.127 7.71 2.287 12.916-.798"/><path fill="#3584e4" d="M250.676 62.077c-9.013-9.523-22.024-31.69-27.171-28.33-4.091 2.671 25.945 43.063 25.945 43.063 3.887 2.365 7.864 5.05 14.639 2.7M250.56 62.027s4.26 6.4 13.526 5.176c11.355-1.5 16.129-2.425 27.443-10.105 6.002-4.073 13.652-8.328 18.174-10.107 8.061-3.172 25.735-8.223 26.303-7.517.177.22-6.973 4.493-15.889 9.498-16.433 9.223-21.722 12.869-21.349 14.718.51 2.526 14.78 3.219 25.583 1.243 3.951-.723 6.776-3.506 13.153-7.906 6.655-4.592 15.715-7.107 20.537-8.32 8.85-2.224 17.408-4.381 10.331-1.666-.541.208-16.879 10.507-18.545 12.77-3.948 5.362-2.414 7.43 6.399 8.634 6.887.941 10.571-.645 19.054-5.21 9.738-5.242 22.764-5.792 25.653-6.916 3.941-1.533-8.771 6.31-11.535 7.908-10.709 6.19-14.497 9.415-9.858 11.83 3.992 2.079 8.826 2.13 15.327.16 4.837-1.465 8.002-1.793 13.428-1.393 7.529.556 14.099 3.233 15.231 3.544 7.359 2.02-2.809.228-6.112.47-10.576.776-24.891 4.128-22.621 6.27-1.092 2.95 8.093 5.166 15.927 10.785 4.917 3.526 11.546 8.897 13.9 14.155-3.593-2.154-26.27-12.032-35.935-16.224-42.821-18.573-72.792-19.21-117.143-15.884-6.944.806-7.21 1.777-7.421 1.515"/><path stroke="#000" stroke-linecap="round" stroke-width="3" d="M250.676 62.077c-9.013-9.523-22.024-31.69-27.171-28.33-4.091 2.671 25.945 43.063 25.945 43.063 3.887 2.365 7.864 5.05 14.639 2.7M250.56 62.027s4.26 6.4 13.526 5.176c11.355-1.5 16.129-2.425 27.443-10.105 6.002-4.073 13.652-8.328 18.174-10.107 8.061-3.172 25.735-8.223 26.303-7.517.177.22-6.973 4.493-15.889 9.498-16.433 9.223-21.722 12.869-21.349 14.718.51 2.526 14.78 3.219 25.583 1.243 3.951-.723 6.776-3.506 13.153-7.906 6.655-4.592 15.715-7.107 20.537-8.32 8.85-2.224 17.408-4.381 10.331-1.666-.541.208-16.879 10.507-18.545 12.77-3.948 5.362-2.414 7.43 6.399 8.634 6.887.941 10.571-.645 19.054-5.21 9.738-5.242 22.764-5.792 25.653-6.916 3.941-1.533-8.771 6.31-11.535 7.908-10.709 6.19-14.497 9.415-9.858 11.83 3.992 2.079 8.826 2.13 15.327.16 4.837-1.465 8.002-1.793 13.428-1.393 7.529.556 14.099 3.233 15.231 3.544 7.359 2.02-2.809.228-6.112.47-10.576.776-24.891 4.128-22.621 6.27-1.092 2.95 8.093 5.166 15.927 10.785 4.917 3.526 11.546 8.897 13.9 14.155-3.593-2.154-26.27-12.032-35.935-16.224-42.821-18.573-72.792-19.21-117.143-15.884-6.944.806-7.21 1.777-7.421 1.515"/><path stroke="#000" stroke-linecap="round" stroke-linejoin="round" stroke-width="3" d="M276.561 89.406c4.073-1.836 10.047-3.215 14.42-2.438 3.678.863 8.959 1.151 10.549 5.068.55 4.08-4.65 5.002-7.638 5.525-5.372.533-11.633.781-16.16-2.51m45.858 290.153c-3.715.668-1.254 2.554-7.627 8.056 15.203 5.217 25.053 5.139 38.119 1.777M205.373 316.31c-9.175-4.125-27.352-13.111-35.306-19.097-13.55-9.18-23.722-14.509-33.857-15.758-13.904 2.07-21.958 12.06-27.679 22.31-2.748 5.646-5.92 12.491-2.771 19.707 3.023 3.301 2.32 2.511-1.973 5.458-5.396 4.813-4.67 9.563-3.269 12.341.354.911 1.197 1.752.545 3.568-4.934 6.578-8.575 10.83-14.806 13.828-2.28.407-2.09-1.625-2.838-2.865l-1.182-8.786c1.862-2.8 6.684-5.341 8.61-6.826-1.149-.892-6.49 1.071-8.662 3.433-.06-8.778 2.212-19.539 4.788-28.528 3.235-6.986 8.588-10.795 12.815-17.328 3.005-4.322 4.798-9.6 8.885-14.633l13.857-17.026c5.931-4.861 10.496-4.83 20.678-3.047 8.875 1.502 19.837 5.174 29.847 7.49m56.778 37.126c-1.003 4.537-5.554 9.451-10.909 10.402-9.487 1.625-14.242-2.19-13.989-1.857 5.925 5.357 10.363 10.805 19.727 16.086 21.765 13.689 42.235 25.157 63.859 37.166 16.349 8.724 33.434 16.548 51.814 19.837 2.374.157 8.213 2.044 10.454 1.2m-171.64-174.195c-11.057 18.466-11.729 31.769-8.652 53.197m257.022 76.343c8.589-1.209-2.114-27.381 17.972-31.386-1.145 4.852-15.635 19.486.917 7.971-1.098 4.31-10.309 13.936.276 10.107-4.438 6.254-12.318 26.198-19.89 15.435-1.948 4.385-6.737 17.988-7.956 22.112-.886 6.127-1.672 12.89-1.444 19.276.24 8.986 1.545 16.674 4.485 24.992 4.303 12.171 7.943 18.733 13.979 26.923 3.376 3.953 6.487 5.985 4.994 11.639-2.002 5.871-3.079 10.561-4.252 17.994-2.344 10.241-3.435 20.498-5.032 30.857l-3.35 26.457c-.944 7.175-2.359 14.494-1.717 21.997.783 5.886-1.736 5.778-4.594 7.579-4.857 4.302-4.383 14.337-10.797 20.052-11.452 7.207-23.302-.381-20.761-2.452l8.547-6.965c7.675 3.973 9.889 1.206 10.443.744-5.031 1.808-8.826-.563-9.197-1.754 1.478-1.673 5.893-5.897 6.639-8.134 2.459-5.706 3.828-12.418 4.807-18.535l5.385-39.94c.709-10.197 1.75-20.144.999-30.265-1.397-9.635-3.736-18.682-7.686-26.663-4.728-7.904-11.115-14.933-16.675-20.455-18.155-15.473-40.47-19.925-54.177-52.196m50.005-70.542c17.111 9.377 40.032 23.429 38.037 45.445m-38.315-45.828s-26.659-14.588-39.763-22.551c-14.841-10.245-27.495-21.001-41.253-31.368-9.086-7.973-16.454-24.776-16.933-26.93-1.66-3.552-6.535-14.12-8.308-16.967m-113.103 38.183c-4.859-5.777-1.814-3.761-6.376-8.218-7.344-7.258-12.077-9.677-19.733-9.064l-21.12 6.098c-6.239 1.804-10.738 5.116-15.682 6.953-7.212 2.955-13.752 2.982-20.409 6.873-7.262 5.911-15.276 13.474-20.252 20.711 3.137-.702 9.177.201 9.61 1.586-2.432.123-8.353.398-11.485 1.635l-4.097 7.448c-.095 1.444-1.405 3.041.701 4.005 6.836 1.087 12.251-.345 20.07-2.934 1.576-1.12 1.378-2.301 1.609-3.251.44-3.077 2.55-7.334 9.738-8.212 5.214.026 5.31 1.028 4.716-3.401 1.544-7.714 8.099-11.524 13.589-14.593 10.492-2.533 34.865-6.184 36.299-3.087 3.142 2.475 10.534 11.252 17.595 24.944m225.432 152.408c.887-.761-1.081.517-2.055 16.361.033 3.755 3.611 7.892-.606 13.058l-16.861 21.22-14.445 18.818-11.936 18.453c-2.665 7.124-6.802 11.081-6.633 21.886.407 5.831-1.647 4.916-4.138 4.846-4.933-1.089-4.808 2.942-5.437 5.37-1.692 6.393-2.262 10.753-6.136 15.586-2.58 4.533-21.526.25-19.008-3.593 3.219-3.959 2.87-3.485 5.267-7.492 15.674 3.466 4.835-.183.736-1.103l13.585-21.357 8.605-16.634 14.525-23.783c4.931-9.488 9.522-19.98 13.129-30.244 3.057-7.834 3.515-10.83 3.431-18.926-.401-8.527-.911-16.4-4.415-24.8-1.525-3.32-2.199-8.668-3.229-13.541M291.167 82.112c-9.177-1.795-15.185 1.44-22.647 4.367-1.718.28-5.174 2.475-6.783 1.562-1.614-2.149 4.91-2.068 5.981-2.99 3.886-1.205-2.83-2.6-4.338-3.605-3.316-.911-7.051.976-10.232-.872-3.102-1.513-5.302-5.827-9.135-5.42-13.42-1.274-26.676 3.943-39.957 5.025-9.847 1.454-18.872-.826-28.741-.883-8.862-1.257-15.532 10.669-13.769 17.836 5.108-.73 12.504-4.457 17.363-.39-.329 1.682-11.886.363-15.469 3.628 1.855 4.277 8.207 3.789 14.95 3.953 8.933.703 17.904 2.453 25.79 6.829 7.184 3.329 12.373 10.169 19.516 13.458 2.09-.152 4.882-3.562 6.651-3.468-.915 2.812-4.276 6.056-8.096 5.131-2.858-.786-3.653.338-4.632 3.67-9.086 13.549-13.624 29.943-25.026 41.911-4.625 5.696-14.175 18.621-17.807 24.975 8.119-3.251 20.933-13.836 19.777-11.35-1.209 2.602-22.99 25.087-27.982 39.179 2.458-1.009 22.76-16.061 24.951-13.752-6.114 11.137-12.947 27.721-14.617 39.662 6.178-5.169 20.18-20.189 28.07-23.13-4.014 7.133-7.958 28.245-4.327 36.175 7.136-7.188 14.196-18.057 23.467-26.682 3.589 12.907 1.256-1.538 8.803 29.135 8.082-9.33 10.03-21.561 15.757-32.446 6.578 7.698 9.51 16.829 11.468 24.342 9.682-11.502 5.187-25.37 8.561-39.805 8.268 4.84 11.087 12.476 14.302 19.573 4.955-14.009.41-18.678.195-34.527-1.863-10.087-7.093-22.123-6.417-32.561.933-16.646 2.905-33.308 1.562-50.001-.331-5.056-.395-11.145-.893-16.16-5.016-2.831-6.893-1.532-10.249-1.842 1.722-2.077 7.53-.184 10.348.06 9.677 2.922 16.758 2.092 26.084-1.387 3.94-1.465 7.663-3.69 10.591-6.689-2.987-3.507-7.27-6.927-11.426-9.063-3.071-1.376-8.302-3.11-11.644-3.448" opacity=".99"/><path stroke="#000" stroke-width="3" d="M429.619 445.436c2.937 2.487 3.116 5.153 1.702 13.595 2.505-3.804 5.703-12.498-1.702-13.595Zm-47.934-7.661c.309 5.909.534 6.058-3.545 13.67 4.432-1.422 6.592-10.154 3.545-13.67Z"/><path fill="#3584e4" stroke="#000" stroke-width="3" d="M232.919 86.66c-.052.363-.21.707-.466 1.012a3 3 0 0 1-1.025.767 4.7 4.7 0 0 1-1.427.406 6 6 0 0 1-1.611-.019 6 6 0 0 1-1.55-.439 4.7 4.7 0 0 1-1.253-.793 3 3 0 0 1-.766-1.026 2 2 0 0 1-.16-1.103c.052-.363.21-.707.466-1.012a3 3 0 0 1 1.025-.767 4.7 4.7 0 0 1 1.427-.406 6 6 0 0 1 1.611.019 6 6 0 0 1 1.55.439c.481.211.907.48 1.253.793.347.312.607.66.766 1.026.159.365.213.74.16 1.103Z"/></g><mask id="c" width="599" height="463" x="0" y="0" maskUnits="userSpaceOnUse" style="mask-type:alpha"><path fill="#f6d32d" stroke="#000" stroke-width="3" d="M1.5 2.177h597l-17.052 1.788c-15.999 2.518-47.999 7.553-66.518 26.072s-23.553 50.518-42.071 69.036-50.518 23.553-69.037 42.072c-18.518 18.518-23.553 50.518-42.071 69.036s-50.519 23.554-69.037 42.072-23.553 50.518-42.071 69.036c-18.519 18.519-50.519 23.554-69.037 42.072s-23.554 50.518-42.071 69.036c-18.519 18.519-50.52 23.555-66.519 26.072l-14.667 2.243C24.786 406.672 1.5 340.453 1.5 260.728z"/></mask><g mask="url(#c)"><path fill="#3584e4" d="M443.248 315.718c-4.457 2.063-8.575 7.601-9.267 12.278-1.155 5.238-.398 10.314-2.886 15.155-.585 1.165-3.816 4.136-4.431 5.104 1.099 1.787 5.256 3.312 6.996 1.8 4.314-3.508 8.796-11.184 11.453-15.971-.631-.981-3.414-.151-3.55-1.746-.656-2.009 1.988-5.177 2.015-6.975-1.367.027-3.185 2.778-4.072 1.108-.861-2.317 1.554-4.165 2.377-6.127.498-1.141.003-1.559-.107-2.808-.077-.061 1.57-1.831 1.472-1.818m-87.722 80.966c-.303 2.22 2.574 7.602 3.048 9.809 4.437 12.248 6.163 25.67 3.754 38.534-2.738 9.45-6.295 17.112-10.307 26.076-7.509 15.715-18.763 30.31-26.583 45.861-4.647 8.52-9.114 17.772-14.301 25.968 1.71 1.414 5.374 1.005 6.392 3.429-.093 2.23-3.234 1.356-4.64 1.166-2.049-.342-4.449-2.747-5.265.099-.878 1.669-4.604 4.68-4.603 6.628 3.761 2.562 9.571 3.216 13.977 3.434 3.68-.217 6.617-5.232 7.838-8.101 1.839-4.545 1.294-8.578 3.544-12.9 1.882-2.284 4.997-1.403 7.375-2.17.264-4.918.928-9.378 2.76-14.055 4.237-11.375 10.928-22.934 17.803-32.85 9.802-13.67 21.83-27.09 31.88-40.562 1.922-3.844-1.01-7.199-.485-11.182.021-4.939 1.012-10.868 1.405-15.728-9.865-7.042-21.186-13.673-30.475-21.503-.406-.185-2.632-2.041-3.117-1.953m27.003 40.689c1.975.778 1.884 3.668 1.857 5.498-.147 4.277-2.361 8.61-6.398 10.318-.547.043-3.624 2.519-2.84 1.047 2.576-5.146 5.935-10.447 5.142-16.474.744-.132 1.482-.358 2.239-.389m-59.261-51.577c-2.687-.206-3.708 6.275-5.265 7.799-1.285 1.726 8.475 1.902 9.647 2.468 8.588 1.615 13.414 1.87 22.01-.399 1.19.053 2.887-1.752 1.243-2.987-1.514-1.058-3.662-.297-5.359-.996-7.149-1.197-15.268-4.095-22.276-5.885"/><path fill="#fff" d="M285.863 212.866c-.734 1.596.197 3.729.238 5.477 1.149 6.762.665 14.055-2.108 20.344-1.598 1.204-2.608-1.521-3.227-2.573-2.758-5.477-5.385-11.592-10.611-15.096-1.149 1.264-.748 3.558-1.117 5.209-.888 8.566-.344 17.596-3.578 25.702-1.373 2.513-2.512 5.7-4.951 7.287-2.02-.022-1.916-2.893-2.713-4.188-2.113-6.369-4.306-12.965-8.571-18.236-1.334.699-1.45 2.852-2.24 4.076-3.818 8.937-6.461 18.871-13.25 26.092-1.009.899-2.339-.02-2.258-1.345-2.782-8.222-3.551-17.349-8.198-24.855-1.209-.483-2.059 1.5-2.934 2.095-6.509 7.057-12.085 14.981-18.848 21.757-1.696.883-2.754-1.648-2.928-2.962-1.779-9.352.16-18.995 2.469-28.098.191-.622 1.309-2.68-.273-2.005-8.471 5.958-15.517 13.926-23.605 20.394-1.756.034-1.786-2.108-1.288-3.345 2.243-12.289 7.198-23.911 12.606-35.055-1.117-.747-2.581.947-3.704 1.266-3.263 1.463-5.883 3.994-7.155 7.371-3.378 6.681-6.067 13.789-6.643 21.322-1.177 8.391-.206 16.999.933 25.267 8.074 1.862 16.588 3.718 24.778 1.514 1.307-.535 2.997 1.489 1.256 2.182-6.996 3.386-14.977 1.099-22.277.026-13.905-2.66-27.289-8.141-41.515-9.045-4.727-.004-9.499 1.942-12.216 5.919-6.952 8.1-14.084 16.22-18.953 25.799-3.564 6.73-11.229 11.874-15.196 18.288-3.344 6.675-2.114 14.339-3.483 21.582.092 1.535-2.49 4.799-1.581 6.171 1.788.279 4.906-2.739 6.79-2.504 1.317-.346 3.436.845 2.253 2.268-2.208 2.404-5.773 3.59-7.656 6.275.03 3.305-.297 7.995 1.06 11.065 4.838-1.7 8.9-7.204 12.216-11.066 1.024-1.614 3.435-3.06 1.896-5.119-2.58-5.04 1.353-11.348 5.83-14.481 2.196-1.01.547-2.433-.871-4.116-2.811-7.568.294-15.823 4.27-22.373 4.896-8.811 12.417-16.612 22.229-19.839 2.931-.87 6.042-2.025 9.04-.664 16.686 3.614 29.504 15.633 44.268 23.374 8.366 4.424 16.756 8.974 25.573 12.402 5.713 1.439 12.582.473 16.293-4.487 1.46-1.304 1.884-3.197 2.794-4.79.557-.971 1.856-1.342 2.275-.069.522 2.574-1.474 5.002-2.965 6.942-2.977 3.674-7.549 5.738-12.294 5.797-1.203.463-5.729-1.696-6.696-.834.838 2.321 5.284 5.743 6.952 7.484 12.878 9.13 27.468 16.946 41.049 24.997 19.644 11.106 38.302 23.077 59.411 31.227 9.628 3.718 23.258 5.811 33.405 7.597-.391-1.932-4.785-4.942-5.742-6.924-2.18-3.939-4.851-7.891-5.985-12.3.239-1.415 2.178-1.291 2.637-.063 2.84 5.419 5.471 11.128 9.334 15.986 8.437 11.449 20.645 19.24 32.49 26.671 7.111 4.583 13.849 9.733 19.108 16.379 5.874 6.878 9.623 12.545 12.036 21.421 3.291 10.06 5.521 20.812 4.749 31.405-1.164 19.643-3.751 39.183-6.677 58.626-1.215 6.601-1.649 15.188-5.28 20.893-1.098 1.824-3.41 3.181-3.859 5.257 2.162 1.343 4.867.125 7.146.332 1.537.723-.3 2.131-1.616 2.461-3.148 1.897-5.595-.676-8.808-1.146-2.659 1.391-6.487 4.004-8.427 6.281.001 1.275 2.798 3.874 3.591 4.325 3.794.383 9.674.667 13.453-.326 5.817-1.604 6.434-9.235 8.307-14.258 1.332-3.956 4.001-7.474 8.095-9.207 2.733-1.449.836-7.574 1.093-9.985.421-12.727 3.585-24.682 5.015-37.319 2.287-18.245 4.249-33.612 8.766-51.453 1.119-3.275 2.063-8.334-.751-11.017-10.145-11.513-17.35-26.945-20.82-41.787-2.544-11.96-.976-23.563 1.472-35.507 2.254-7.466 5.149-14.516 7.822-21.785 1.333-10.838-4.186-22.125-12.105-28.995-12.955-11.287-29.64-19.236-44.394-27.856-13.11-7.305-27.095-14.391-38.752-23.882-8.909-7.016-18.152-13.823-26.682-21.189-7.755-8.457-12.705-18.932-17.098-29.443-.64-.878-.889-2.784-2.099-3.018M425.6 443.125c3.646.697 8.821 1.286 9.745 5.645.75 3.826-.804 7.776-2.853 10.96-3.233-.004-2.408-2.622-2.12-4.9.062-2.654 1.059-5.951-1.382-7.88-1.138-1.366-2.579-2.512-3.689-3.869z"/><path fill="#fff" d="M144.5 224.606c-11.332 3.435-23.073 5.935-33.596 11.56-7.249 3.859-15.76 4.299-22.96 8.173-6.338 4.602-12.037 10.195-17.082 16.179-.594.554-1.289 2.018.23 1.872 2.123.658 5.975.71 6.149 3.602-1.693 1.621-5.21-.009-7.368.474-2.574.073-5.849.89-6.8 3.642-.87 2.011-2.882 5.545-2.563 7.749 6.3.834 14.795-.725 20.595-3.1 1.8-1.89.289-5.436 2.229-7.322 2.799-3.675 8.046-3.611 12.445-3.472.657-2.841.53-7.134 2.626-9.44 4.127-5.879 10.704-9.874 17.871-10.776 9.36-1.642 18.823-3.406 28.358-2.87 3.716.278 4.676 4.093 7.015 6.482 4.961 5.933 8.409 12.641 12.384 19.225.659.721 4.558 2.471 5.412 1.879-.566-8.292-1.485-19.389-.398-27.689-.383-3.833-4.635-4.679-6.959-7.488-3.991-3.904-8.527-8.086-14.46-8.237zm80.633-142.173c-2.355 1.664-4.001 4.404-4.73 7.143 2.153 1.056 4.914.903 7.306.929 4.837-.879 11.794-4.29 16.475-5.771-1.597-1.045-7.347-.436-9.467-.972-3.193-.423-6.396-1.005-9.584-1.329"/><path fill="#fff" d="M243.837 76.699c-14.906-1.258-29.216 4.78-44.022 5.163-6.949.432-13.898-.737-20.807-.772-1.279.207-9.239-2.152-8.675-1.93 1.826 1.138 10.779 7.34 8.642 7.834-1.297.637-2.284-.65-3.4-.832-2.117.44-4.204 1.666-4.811 3.809-1.719 2.355 4.795-8.605 5.31-10.94-.767-.985-11.926 5.778-12.195 6.371-.642 1.958-1.543 7.54-.988 9.584 4.824-.232 9.88-2.678 14.675-.685 1.51.455 3.789 2.513 1.86 3.85-3.559 1.628-10.385.204-14.14 1.32-.897-.045.705 3.044 2.066 3.777 4.264 1.511 8.472-.828 12.894.021 9.138 1.046 18.521 2.591 26.36 7.695 5.962 3.387 10.816 8.594 16.853 11.833 2.355.134 3.839-2.444 6.08-2.923 1.433-.691 2.572.933 1.807 2.192-1.473 4.367-6.556 6.757-11.001 5.464-3.828 7.24-8.152 14.4-11.746 21.839-4.206 8.516-8.909 16.786-15.257 23.909-4.701 6.129-12.975 14.441-16.931 21.064.719.68 5.266-3.235 6.093-3.421 4.016-2.268 7.603-5.483 11.888-7.137 1.782-.053 1.761 2.168.798 3.158-8.193 10.734-20.432 21.89-26.84 33.83.968.804 4.412-1.395 5.381-1.72 5.238-3.131 10.585-8.203 16.608-9.611 1.625-.447 2.386.978 1.122 2.44-5.207 10.474-11.487 24.752-14.054 36.215.091 1.571 3.955-3.794 4.497-4.12 6.969-6.074 13.434-13.124 21.641-17.449.931-.618 2.99-.599 2.604.985-1.219 4.409-5.009 9.841-5.354 14.483-.608 6.148-1.333 13.192.158 19.324.64 1.454 2.157-2.895 2.766-3.305 6.612-7.398 12.312-15.746 19.84-22.191 1.344-1.018 1.575 2.406 1.835 3.323 1.404 4.577 3.456 9.058 4.394 13.785 1.058 3.33 1.311 8.492 2.884 11.561 1.806-1.15 3.951-4.986 5.086-6.792 3.851-7.719 5.675-17.554 9.986-25.023 1.338-1.209 2.604 1.151 3.392 1.934 4.439 5.307 5.286 13.147 7.744 19.509.577 1.566 3.825.826 3.926-.15 3.949-8.662 2.299-20.575 3.534-29.799.507-2.315.058-5.288 1.636-7.147 2.579-.357 4.484 2.288 6.359 3.709 3.614 3.167 5.175 10.542 7.701 14.53 1.118-.131 2.279-6.245 2.635-7.068.901-8.123-1.544-15.635-1.756-23.716-1.595-12.202-8.642-23.262-7.324-35.786.821-16.654 2.472-33.327 1.23-50.01-.306-4.462-.307-9.036-.818-13.427-3.138-1.337-6.79-.771-9.902-1.971-.923-1.632 1.619-2.618 2.897-2.821 5.796-.328 11.778 3.291 17.571 3.679 8.118.552 16.624-1.862 23.444-6.146.713-.733 2.099-2.727 1.771-3.932-7.172-7.69-16.579-12.235-26.941-11.897-7.329.92-15.224 6.304-22.433 7.456-2.067.029-3.24-3.1-1.112-3.999 1.081-.904 3.109-.715 3.854-1.735-4.115-2.811-9.856.544-13.799-2.769-2.327-1.75-4.318-4.428-7.516-4.422m48.612 9.222c3.682.76 8.767 1.527 10.226 5.48 1.054 3.268-2.046 5.923-4.967 6.676-6.359 1.824-13.675 1.637-19.749-1.149-1.465-.411-2.26-2.565-.52-3.14 2.086.22 3.887 1.872 6.094 2.004 4.948.805 10.456 1.055 14.998-1.293 2.008-.988 1.12-3.745-.816-4.178-6.446-2.852-13.905-2.45-20.311.22-1.519.955-3.232-1.475-1.406-2.204 5.004-2.605 10.893-3.484 16.451-2.416m-54.446-4.509c3.591.774 7.618.652 10.85 2.471 1.552 1.815-.623 4.13-2.643 3.83-5.036-.487-9.451 2.792-14.009 4.402-4.235 2.453-9.184.978-13.673.04-.794-.294-2.772-.364-1.753-1.67 1.677-4.044 4.408-7.756 8.98-9.21 4.418-.002 7.846-.376 12.248.137"/><path stroke="#000" stroke-linecap="round" stroke-width="3" d="M173.055 270.551c3.486.807 6.857 1.449 9.984 1.777 1.082-.001 5.996 1.626 14.318-.789m39.074-188.984c3.71.88 8.033.49 11.409 2.259.9 2.464-3.519.902-4.853 1.528-5.432.962-10.04 4.779-15.396 5.838-3.102-.223-6.634-.465-9.378-1.59 1.735-3.548 4.073-7.478 8.406-8.457 3.632.526 6.18-.104 9.812.422Zm-59.567.632c4.548-.062 2.037 4.578-.247 1.493-2.153-.637-5.487 1.958-7.334 2.885 2.108 3.82-4.178 1.108-.845-1.947 3.12-1.729 4.852-2.014 8.426-2.431Z" opacity=".99"/><path fill="#f6d32d" d="M251.328 65.825s5.471 4.499 14.112.952c10.59-4.346 14.967-6.46 23.931-16.771 4.756-5.47 11.058-11.535 14.972-14.41 6.977-5.122 22.764-14.515 23.494-13.977.227.167-5.587 6.123-12.92 13.237-13.516 13.11-17.693 17.984-16.858 19.677 1.141 2.312 15.111-.657 25.045-5.324 3.633-1.707 6.335-4.072 11.37-9.952 5.254-6.139 8.569-8.99 16.226-13.957 9.842-6.386 16.389-10.739 11.899-6.732-4.363 3.894-15.156 16.577-16.186 19.19-2.44 6.191-.428 7.8 8.4 6.716 6.897-.846 10.998-2.325 18.043-8.884 7.195-6.698 19.655-10.765 20.306-11.224 1.561-1.1-2.438 2.876-7.371 7.568-8.987 8.549-11.595 12.802-6.492 13.954 4.391.991 9.076-.193 14.854-3.755 4.299-2.65 7.672-4.565 13.019-5.562 7.419-1.383 16.404.265 15.232.33-.466.027-2.555 1.29-5.787 2.015-10.708 2.4-20.672 8.199-20.283 11.289-.157 1.197 2.39 4.407 6.263 5.543 9.99 2.932 18.271 9.776 22.801 17.11-6.163-2.982-13.277-6.6-22.392-10.015-32.962-13.299-69.484-10.377-127.605 12.414.397-.122-8.846 4.557-9.118 4.357m-15.189-13.883c-11.155-6.91-29.417-25.024-33.53-20.462-3.268 3.626 36.125 35.02 36.125 35.02 3.861 1.127 7.71 2.287 12.916-.798"/><path stroke="#000" stroke-linecap="round" stroke-width="3" d="M251.328 65.825s5.471 4.499 14.112.952c10.59-4.346 14.967-6.46 23.931-16.771 4.756-5.47 11.058-11.535 14.972-14.41 6.977-5.122 22.764-14.515 23.494-13.977.227.167-5.587 6.123-12.92 13.237-13.516 13.11-17.693 17.984-16.858 19.677 1.141 2.312 15.111-.657 25.045-5.324 3.633-1.707 6.335-4.072 11.37-9.952 5.254-6.139 8.569-8.99 16.226-13.957 9.842-6.386 16.389-10.739 11.899-6.732-4.363 3.894-15.156 16.577-16.186 19.19-2.44 6.191-.428 7.8 8.4 6.716 6.897-.846 10.998-2.325 18.043-8.884 7.195-6.698 19.655-10.765 20.306-11.224 1.561-1.1-2.438 2.876-7.371 7.568-8.987 8.549-11.595 12.802-6.492 13.954 4.391.991 9.076-.193 14.854-3.755 4.299-2.65 7.672-4.565 13.019-5.562 7.419-1.383 16.404.265 15.232.33-.466.027-2.555 1.29-5.787 2.015-10.708 2.4-20.672 8.199-20.283 11.289-.157 1.197 2.39 4.407 6.263 5.543 9.99 2.932 18.271 9.776 22.801 17.11-6.163-2.982-13.277-6.6-22.392-10.015-32.962-13.299-69.484-10.377-127.605 12.414.397-.122-8.846 4.557-9.118 4.357m-15.189-13.883c-11.155-6.91-29.417-25.024-33.53-20.462-3.268 3.626 36.125 35.02 36.125 35.02 3.861 1.127 7.71 2.287 12.916-.798"/><path fill="#f6d32d" d="M250.676 62.077c-9.013-9.523-22.024-31.69-27.171-28.33-4.091 2.671 25.945 43.063 25.945 43.063 3.887 2.365 7.864 5.05 14.639 2.7M250.56 62.027s4.26 6.4 13.526 5.176c11.355-1.5 16.129-2.425 27.443-10.105 6.002-4.073 13.652-8.328 18.174-10.107 8.061-3.172 25.735-8.223 26.303-7.517.177.22-6.973 4.493-15.889 9.498-16.433 9.223-21.722 12.869-21.349 14.718.51 2.526 14.78 3.219 25.583 1.243 3.951-.723 6.776-3.506 13.153-7.906 6.655-4.592 15.715-7.107 20.537-8.32 8.85-2.224 17.408-4.381 10.331-1.666-.541.208-16.879 10.507-18.545 12.77-3.948 5.362-2.414 7.43 6.399 8.634 6.887.941 10.571-.645 19.054-5.21 9.738-5.242 22.764-5.792 25.653-6.916 3.941-1.533-8.771 6.31-11.535 7.908-10.709 6.19-14.497 9.415-9.858 11.83 3.992 2.079 8.826 2.13 15.327.16 4.837-1.465 8.002-1.793 13.428-1.393 7.529.556 14.099 3.233 15.231 3.544 7.359 2.02-2.809.228-6.112.47-10.576.776-24.891 4.128-22.621 6.27-1.092 2.95 8.093 5.166 15.927 10.785 4.917 3.526 11.546 8.897 13.9 14.155-3.593-2.154-26.27-12.032-35.935-16.224-42.821-18.573-72.792-19.21-117.143-15.884-6.944.806-7.21 1.777-7.421 1.515"/><path stroke="#000" stroke-linecap="round" stroke-width="3" d="M250.676 62.077c-9.013-9.523-22.024-31.69-27.171-28.33-4.091 2.671 25.945 43.063 25.945 43.063 3.887 2.365 7.864 5.05 14.639 2.7M250.56 62.027s4.26 6.4 13.526 5.176c11.355-1.5 16.129-2.425 27.443-10.105 6.002-4.073 13.652-8.328 18.174-10.107 8.061-3.172 25.735-8.223 26.303-7.517.177.22-6.973 4.493-15.889 9.498-16.433 9.223-21.722 12.869-21.349 14.718.51 2.526 14.78 3.219 25.583 1.243 3.951-.723 6.776-3.506 13.153-7.906 6.655-4.592 15.715-7.107 20.537-8.32 8.85-2.224 17.408-4.381 10.331-1.666-.541.208-16.879 10.507-18.545 12.77-3.948 5.362-2.414 7.43 6.399 8.634 6.887.941 10.571-.645 19.054-5.21 9.738-5.242 22.764-5.792 25.653-6.916 3.941-1.533-8.771 6.31-11.535 7.908-10.709 6.19-14.497 9.415-9.858 11.83 3.992 2.079 8.826 2.13 15.327.16 4.837-1.465 8.002-1.793 13.428-1.393 7.529.556 14.099 3.233 15.231 3.544 7.359 2.02-2.809.228-6.112.47-10.576.776-24.891 4.128-22.621 6.27-1.092 2.95 8.093 5.166 15.927 10.785 4.917 3.526 11.546 8.897 13.9 14.155-3.593-2.154-26.27-12.032-35.935-16.224-42.821-18.573-72.792-19.21-117.143-15.884-6.944.806-7.21 1.777-7.421 1.515"/><path stroke="#000" stroke-linecap="round" stroke-linejoin="round" stroke-width="3" d="M276.561 89.406c4.073-1.836 10.047-3.215 14.42-2.438 3.678.863 8.959 1.151 10.549 5.068.55 4.08-4.65 5.002-7.638 5.525-5.372.533-11.633.781-16.16-2.51m45.858 290.153c-3.715.668-1.254 2.554-7.627 8.056 15.203 5.217 25.053 5.139 38.119 1.777M205.373 316.31c-9.175-4.125-27.352-13.111-35.306-19.097-13.55-9.18-23.722-14.509-33.857-15.758-13.904 2.07-21.958 12.06-27.679 22.31-2.748 5.646-5.92 12.491-2.771 19.707 3.023 3.301 2.32 2.511-1.973 5.458-5.396 4.813-4.67 9.563-3.269 12.341.354.911 1.197 1.752.545 3.568-4.934 6.578-8.575 10.83-14.806 13.828-2.28.407-2.09-1.625-2.838-2.865l-1.182-8.786c1.862-2.8 6.684-5.341 8.61-6.826-1.149-.892-6.49 1.071-8.662 3.433-.06-8.778 2.212-19.539 4.788-28.528 3.235-6.986 8.588-10.795 12.815-17.328 3.005-4.322 4.798-9.6 8.885-14.633l13.857-17.026c5.931-4.861 10.496-4.83 20.678-3.047 8.875 1.502 19.837 5.174 29.847 7.49m56.778 37.126c-1.003 4.537-5.554 9.451-10.909 10.402-9.487 1.625-14.242-2.19-13.989-1.857 5.925 5.357 10.363 10.805 19.727 16.086 21.765 13.689 42.235 25.157 63.859 37.166 16.349 8.724 33.434 16.548 51.814 19.837 2.374.157 8.213 2.044 10.454 1.2m-171.64-174.195c-11.057 18.466-11.729 31.769-8.652 53.197m257.022 76.343c8.589-1.209-2.114-27.381 17.972-31.386-1.145 4.852-15.635 19.486.917 7.971-1.098 4.31-10.309 13.936.276 10.107-4.438 6.254-12.318 26.198-19.89 15.435-1.948 4.385-6.737 17.988-7.956 22.112-.886 6.127-1.672 12.89-1.444 19.276.24 8.986 1.545 16.674 4.485 24.992 4.303 12.171 7.943 18.733 13.979 26.923 3.376 3.953 6.487 5.985 4.994 11.639-2.002 5.871-3.079 10.561-4.252 17.994-2.344 10.241-3.435 20.498-5.032 30.857l-3.35 26.457c-.944 7.175-2.359 14.494-1.717 21.997.783 5.886-1.736 5.778-4.594 7.579-4.857 4.302-4.383 14.337-10.797 20.052-11.452 7.207-23.302-.381-20.761-2.452l8.547-6.965c7.675 3.973 9.889 1.206 10.443.744-5.031 1.808-8.826-.563-9.197-1.754 1.478-1.673 5.893-5.897 6.639-8.134 2.459-5.706 3.828-12.418 4.807-18.535l5.385-39.94c.709-10.197 1.75-20.144.999-30.265-1.397-9.635-3.736-18.682-7.686-26.663-4.728-7.904-11.115-14.933-16.675-20.455-18.155-15.473-40.47-19.925-54.177-52.196m50.005-70.542c17.111 9.377 40.032 23.429 38.037 45.445m-38.315-45.828s-26.659-14.588-39.763-22.551c-14.841-10.245-27.495-21.001-41.253-31.368-9.086-7.973-16.454-24.776-16.933-26.93-1.66-3.552-6.535-14.12-8.308-16.967m-113.103 38.183c-4.859-5.777-1.814-3.761-6.376-8.218-7.344-7.258-12.077-9.677-19.733-9.064l-21.12 6.098c-6.239 1.804-10.738 5.116-15.682 6.953-7.212 2.955-13.752 2.982-20.409 6.873-7.262 5.911-15.276 13.474-20.252 20.711 3.137-.702 9.177.201 9.61 1.586-2.432.123-8.353.398-11.485 1.635l-4.097 7.448c-.095 1.444-1.405 3.041.701 4.005 6.836 1.087 12.251-.345 20.07-2.934 1.576-1.12 1.378-2.301 1.609-3.251.44-3.077 2.55-7.334 9.738-8.212 5.214.026 5.31 1.028 4.716-3.401 1.544-7.714 8.099-11.524 13.589-14.593 10.492-2.533 34.865-6.184 36.299-3.087 3.142 2.475 10.534 11.252 17.595 24.944m225.432 152.408c.887-.761-1.081.517-2.055 16.361.033 3.755 3.611 7.892-.606 13.058l-16.861 21.22-14.445 18.818-11.936 18.453c-2.665 7.124-6.802 11.081-6.633 21.886.407 5.831-1.647 4.916-4.138 4.846-4.933-1.089-4.808 2.942-5.437 5.37-1.692 6.393-2.262 10.753-6.136 15.586-2.58 4.533-21.526.25-19.008-3.593 3.219-3.959 2.87-3.485 5.267-7.492 15.674 3.466 4.835-.183.736-1.103l13.585-21.357 8.605-16.634 14.525-23.783c4.931-9.488 9.522-19.98 13.129-30.244 3.057-7.834 3.515-10.83 3.431-18.926-.401-8.527-.911-16.4-4.415-24.8-1.525-3.32-2.199-8.668-3.229-13.541M291.167 82.112c-9.177-1.795-15.185 1.44-22.647 4.367-1.718.28-5.174 2.475-6.783 1.562-1.614-2.149 4.91-2.068 5.981-2.99 3.886-1.205-2.83-2.6-4.338-3.605-3.316-.911-7.051.976-10.232-.872-3.102-1.513-5.302-5.827-9.135-5.42-13.42-1.274-26.676 3.943-39.957 5.025-9.847 1.454-18.872-.826-28.741-.883-8.862-1.257-15.532 10.669-13.769 17.836 5.108-.73 12.504-4.457 17.363-.39-.329 1.682-11.886.363-15.469 3.628 1.855 4.277 8.207 3.789 14.95 3.953 8.933.703 17.904 2.453 25.79 6.829 7.184 3.329 12.373 10.169 19.516 13.458 2.09-.152 4.882-3.562 6.651-3.468-.915 2.812-4.276 6.056-8.096 5.131-2.858-.786-3.653.338-4.632 3.67-9.086 13.549-13.624 29.943-25.026 41.911-4.625 5.696-14.175 18.621-17.807 24.975 8.119-3.251 20.933-13.836 19.777-11.35-1.209 2.602-22.99 25.087-27.982 39.179 2.458-1.009 22.76-16.061 24.951-13.752-6.114 11.137-12.947 27.721-14.617 39.662 6.178-5.169 20.18-20.189 28.07-23.13-4.014 7.133-7.958 28.245-4.327 36.175 7.136-7.188 14.196-18.057 23.467-26.682 3.589 12.907 1.256-1.538 8.803 29.135 8.082-9.33 10.03-21.561 15.757-32.446 6.578 7.698 9.51 16.829 11.468 24.342 9.682-11.502 5.187-25.37 8.561-39.805 8.268 4.84 11.087 12.476 14.302 19.573 4.955-14.009.41-18.678.195-34.527-1.863-10.087-7.093-22.123-6.417-32.561.933-16.646 2.905-33.308 1.562-50.001-.331-5.056-.395-11.145-.893-16.16-5.016-2.831-6.893-1.532-10.249-1.842 1.722-2.077 7.53-.184 10.348.06 9.677 2.922 16.758 2.092 26.084-1.387 3.94-1.465 7.663-3.69 10.591-6.689-2.987-3.507-7.27-6.927-11.426-9.063-3.071-1.376-8.302-3.11-11.644-3.448" opacity=".99"/><path stroke="#000" stroke-width="3" d="M429.619 445.436c2.937 2.487 3.116 5.153 1.702 13.595 2.505-3.804 5.703-12.498-1.702-13.595Zm-47.934-7.661c.309 5.909.534 6.058-3.545 13.67 4.432-1.422 6.592-10.154 3.545-13.67Z"/><path fill="#3584e4" stroke="#000" stroke-width="3" d="M232.919 86.66c-.052.363-.21.707-.466 1.012a3 3 0 0 1-1.025.767 4.7 4.7 0 0 1-1.427.406 6 6 0 0 1-1.611-.019 6 6 0 0 1-1.55-.439 4.7 4.7 0 0 1-1.253-.793 3 3 0 0 1-.766-1.026 2 2 0 0 1-.16-1.103c.052-.363.21-.707.466-1.012a3 3 0 0 1 1.025-.767 4.7 4.7 0 0 1 1.427-.406 6 6 0 0 1 1.611.019 6 6 0 0 1 1.55.439c.481.211.907.48 1.253.793.347.312.607.66.766 1.026.159.365.213.74.16 1.103Z"/></g><path stroke="#000" stroke-width="3" d="M1.5 2.177h597l-17.052 1.788c-15.999 2.518-47.999 7.553-66.518 26.072s-23.553 50.518-42.071 69.036-50.518 23.553-69.037 42.072c-18.518 18.518-23.553 50.518-42.071 69.036s-50.519 23.554-69.037 42.072-23.553 50.518-42.071 69.036c-18.519 18.519-50.519 23.554-69.037 42.072s-23.554 50.518-42.071 69.036c-18.519 18.519-50.52 23.555-66.519 26.072l-14.667 2.243C24.786 406.672 1.5 340.453 1.5 260.728z"/><path stroke="#000" stroke-width="3" d="M300 658.5s298.5-112.32 298.5-397.772V2.176H1.5v258.552C1.5 546.18 300 658.5 300 658.5Z" clip-rule="evenodd"/></g><defs><clipPath id="a"><path fill="#fff" d="M600 0H0v660h600z"/></clipPath></defs></svg>