<svg xmlns="http://www.w3.org/2000/svg" width="600" height="661" fill="none" viewBox="0 0 600 661"><g clip-path="url(#a)"><path fill="#000" fill-rule="evenodd" d="M0 .366v260.43c0 13.58.672 26.762 1.947 39.57H300v-300zm300 300v358.5s270.474-101.957 296-358.5z" clip-rule="evenodd"/><path fill="#26a269" fill-rule="evenodd" d="M300 300.366v360s-272.301-102.383-298-360zm300-300v260.43c0 13.58-.672 26.762-1.947 39.57H300v-300z" clip-rule="evenodd"/><path fill="#000" d="M302 2.366h-4v656h4z"/><path fill="#000" d="M598 302.366v-4H2v4z"/><path stroke="#000" stroke-width="3" d="M300 658.866S1.5 546.546 1.5 261.094V1.924l597-.059v259.229c0 285.452-298.5 397.772-298.5 397.772Z" clip-rule="evenodd"/><path fill="#e7e7e7" fill-rule="evenodd" d="M319.908 183.008c26.695-.943 46.861-8.901 79.901-3.074 26.617 4.696 47.172 19.103 19.47 33.535l-43.386 22.603c-19.089 9.945-51.408-7.919-73.435-17.291" clip-rule="evenodd"/><path stroke="#000" stroke-linecap="round" stroke-linejoin="round" stroke-width="3" d="M319.908 183.008c26.695-.943 46.861-8.901 79.901-3.074 26.617 4.696 47.172 19.103 19.47 33.535l-43.386 22.603c-19.089 9.945-51.408-7.919-73.435-17.291"/><path fill="#e7e7e7" fill-rule="evenodd" d="M268.117 194.142c-7.841-3.562-49.356 6.332-52.987 9.308-4.102 3.36-11.686 6.411-18.658 10.606-7.772 4.676-15.758 13.398-19.191 16.898-8.826 9-11.463 22.916-20.494 32.629-23.161 24.909-50.816 60.126-46.437 74.426 2.494 8.143.853 16.671 10.009 18.349 6.055 1.11 11.286-.852 17.218-3.205l27.884-11.065c-16.548 11.883-35.749 11.929-30.535 24.119 4.221 9.874 18.759 11.491 42.24.011 19.126-9.351 31.521-.353 51.334.897 11.185.704 30.245-8.078 37.591-10.722l77.031-24.709" clip-rule="evenodd"/><path stroke="#000" stroke-linecap="round" stroke-linejoin="round" stroke-width="3" d="M268.117 194.142c-7.841-3.562-49.356 6.332-52.987 9.308-4.102 3.36-11.686 6.411-18.658 10.606-7.772 4.676-15.758 13.398-19.191 16.898-8.826 9-11.463 22.916-20.494 32.629-23.161 24.909-50.816 60.126-46.437 74.426 2.494 8.143.853 16.671 10.009 18.349 6.055 1.11 11.286-.852 17.218-3.205l27.884-11.065c-16.548 11.883-35.749 11.929-30.535 24.119 4.221 9.874 18.759 11.491 42.24.011 19.126-9.351 31.521-.353 51.334.897 11.185.704 30.245-8.078 37.591-10.722l77.031-24.709"/><path fill="#e7e7e7" stroke="#000" stroke-linecap="round" stroke-linejoin="round" stroke-width="3" d="M285.362 169.58c-4.096.047-8.211 2.637-11.539 8.846-19.115-9.869-35.93-5.387-31.431 7.034-15.703-1.691-23.505 3.016-31.595 11.264-17.082 17.418 15.521 33.951 34.068 33.299 2.554 7.096-4.267 28.812 25.057 18.463-4.054 13.415-7.809 33.874 12.143 35.167l22.859 40.167c-4.434 21.495-28.2 25.866-38.849 32.584-6.389 17.352.925 31.815-.055 41.266-19.981 19.191-2.51 24.382 4.451 43.19-14.818 10.55-9.303 18.555-1.923 27.144 78.678-6.881 147.685-30.886 200.726-89.181a83 83 0 0 0-6.923-5.879c5.31-19.486-9.973-27.236-22.639-41.926 6.147-18.274-9.072-28.849-20.88-39.618 5.659-21.856-10.837-42.687-19.232-63.74-7.222-31.755-35.914-32.955-50.608-37.53-5.417-16.331-31.783-24.196-49.453-10.605-3.637-5.906-8.911-10.007-14.177-9.945"/><path stroke="#000" stroke-linecap="round" stroke-linejoin="round" stroke-width="3" d="M186.977 270.394c3.116 11.736 25.658 23.295 29.912-4.842"/><path stroke="#000" stroke-linecap="round" stroke-linejoin="round" stroke-width="3" d="M223.36 264.453c-19.837 5.023-32.858-4.98-43.359 13.787"/><path fill="#e7e7e7" d="M136.996 321.696c-.69 4.902-13.923 12.809-15.54 9.65-1.538-3.007-1.498-5.349-.825-7.62"/><path stroke="#000" stroke-linecap="round" stroke-linejoin="round" stroke-width="3" d="M136.996 321.696c-.69 4.902-13.923 12.809-15.54 9.65-1.538-3.007-1.498-5.349-.825-7.62"/><path fill="#000" stroke="#000" stroke-linecap="round" stroke-linejoin="round" stroke-width="3" d="M197.857 275.056c-.619 2.003.662 4.134 2.864 4.758s4.488-.493 5.106-2.496c.62-2.003-.663-4.133-2.864-4.758-2.202-.622-4.488.494-5.106 2.496"/><path fill="#e7e7e7" fill-rule="evenodd" d="M363.514 228.812c24.119 10.758 46.07 12.532 72.317 31.982 21.145 15.671 31.919 37.227-.037 37.862l-50.054.995c-22.02.436-41.429-29.259-56.101-47.038" clip-rule="evenodd"/><path stroke="#000" stroke-linecap="round" stroke-linejoin="round" stroke-width="3" d="M363.514 228.812c24.119 10.758 46.07 12.532 72.317 31.982 21.145 15.671 31.919 37.227-.037 37.862l-50.054.995c-22.02.436-41.429-29.259-56.101-47.038"/><path fill="#f6d32d" fill-rule="evenodd" stroke="#000" stroke-linecap="round" stroke-linejoin="round" stroke-width="3" d="M297.855 228.342c21.871-41.039 59.778-48.453 88.058-44.48 30.722 4.316 45.305 26.205 47.663 49.583 2.36 23.392-10.837 50.454-43.573 51.113-33.07.665-46.896-16.858-49.305-39.269-2.268-21.109 19.1-28.82 36.338-30.945 18.107-2.234 28.581 11.457 34.5 23.246 7.841-8.984 10.892-28.491-5.842-32.662-3.546-2.144-2.877-5.111-7.083-7.885s-12.439-5.026-21.525-1.28c-3.558-6.398-22.064-2.88-26.462 4.309-8.583-.749-22.293 2.097-23.199 13.256-13.796 3.155-20.101 14.177-16.234 30.202-7.97 8.425-7.862 18.899 4.512 27.402-5.108 10.563-3.341 22.658 14.205 24.508 1.492 17.692 19.99 19.644 28.282 16.456 9.481 9.991 23.587 14.103 30.365 5.228 13.52 10.18 26.675 3.553 31.741-5.074 15.214 1.652 24.209-5.637 28.944-14.34 10.897-2.097 20.363-12.901 19.932-22.21 11.482-7.326 11.193-18.269 5.893-26.696 8.253-7.271 8.596-17.686-.632-26.376 9.023-13.386 2.5-27.574-10.915-34.487 1.106-16.918-11.889-29.89-29.568-29.564-10.282-19.186-23.427-23.389-42.731-18.282-10.31-11.434-32.198-12.868-44.548-4.265-14.686-3.894-32.533-1.959-43.954 11.419-23.614 1.157-36.985 17.374-36.302 32.507-19.194 7.26-23.491 15.406-24.955 23.931-3.558 20.723 50.433 35.844 56.395 24.655" clip-rule="evenodd"/><path stroke="#000" stroke-linecap="round" stroke-linejoin="round" stroke-width="3" d="M266.414 179.758c14.393 7.072 29.764 8.113 47.712 25.6m-11.409-58.107c21.699 15.324 24.379 29.077 33.303 42.999m10.65-54.418c9.01 17.317 15.148 33.155 15.212 46.856m29.336-42.593c1.975 15.561-1.577 29.346-5.292 43.327m48.024-25.045c-4.171 13.792-14.637 23.698-23.799 33.898m53.367-4.334c-11.704 9.386-24.315 16.883-38.948 19.812m49.862 14.675c-13.834 2.477-27.451 4.479-40.604 4.893m41.238 21.483c-14.721.525-28.461-.656-40.673-5.024m34.778 31.72c-13.915-3.004-27.257-7.649-39.48-15.782m19.549 37.992c-11.908-5.086-21.807-13.587-29.068-24.594m.124 38.934c-7.234-8.546-12.268-18.522-13.941-30.326m-17.801 35.4c-2.102-10.446-2.572-19.491.399-31.728m-30.764 26.5c.319-11.475 5.278-21.12 10.189-30.535m-38.47 14.078c5.897-8.445 14.396-15.433 25.568-20.811m-39.773-3.696c8.45-5.572 17.816-9.225 29.164-9.989m-33.677-17.414c9.517-1.492 19.557-.874 29.508 1.76m-13.273-31.962c7.78 3.125 13.173 8.846 18.114 15.165m5.086-28.42c3.88 5.103 7.992 9.521 9.155 17.68m17.306-21.989c.85 6.072 2.687 11.551-.01 18.144m28.618-8.979c-1.873 4.86-6.157 8.286-10.253 11.728"/></g><defs><clipPath id="a"><path fill="#fff" d="M0 .366h600v660H0z"/></clipPath></defs></svg>