<svg xmlns="http://www.w3.org/2000/svg" width="601" height="661" fill="none" viewBox="0 0 601 661"><g clip-path="url(#a)"><path fill="#fff" fill-rule="evenodd" d="M300.905 658.579s298.5-112.32 298.5-397.772V2.255h-597v258.552c0 285.452 298.5 397.772 298.5 397.772" clip-rule="evenodd"/><path fill="#e20909" stroke="#010101" stroke-width="3" d="M2.405.902v198.497h596.997V1.579H2.405z"/><mask id="b" fill="#fff"><path fill-rule="evenodd" d="M126.46 90.54c1.368-20.11 7.047-39.678 16.658-57.211a10.2 10.2 0 0 0-3.623-3.816 9.5 9.5 0 0 0-4.948-1.396 9.5 9.5 0 0 0-4.949 1.396 10.2 10.2 0 0 0-3.622 3.816c0-3.17-.793-6.283-2.297-9.028s-3.669-5.023-6.275-6.608c-2.605 1.584-4.769 3.864-6.274 6.608a18.8 18.8 0 0 0-2.296 9.028 10.2 10.2 0 0 0-3.623-3.816 9.5 9.5 0 0 0-4.949-1.396 9.5 9.5 0 0 0-4.948 1.396 10.2 10.2 0 0 0-3.623 3.816c9.611 17.533 15.29 37.1 16.658 57.212-19.095-1.44-37.673-7.422-54.32-17.545a10.2 10.2 0 0 0-3.622 3.816 10.86 10.86 0 0 0-1.326 5.212c0 1.83.457 3.627 1.326 5.212a10.2 10.2 0 0 0 3.623 3.815c-3.01 0-5.966.834-8.571 2.42-2.607 1.584-4.77 3.863-6.275 6.608 1.505 2.744 3.669 5.024 6.275 6.608a16.5 16.5 0 0 0 8.57 2.419 10.2 10.2 0 0 0-3.622 3.816 10.85 10.85 0 0 0-1.326 5.212c0 1.829.457 3.627 1.326 5.212a10.2 10.2 0 0 0 3.623 3.815c16.646-10.122 35.224-16.104 54.319-17.544-1.368 20.111-7.047 39.679-16.658 57.212a10.17 10.17 0 0 0 3.623 3.815 9.5 9.5 0 0 0 4.948 1.397 9.5 9.5 0 0 0 4.949-1.397 10.17 10.17 0 0 0 3.623-3.815c0 3.169.792 6.283 2.296 9.027 1.505 2.745 3.669 5.024 6.274 6.609 2.606-1.585 4.77-3.864 6.275-6.609a18.8 18.8 0 0 0 2.297-9.027 10.2 10.2 0 0 0 3.622 3.815 9.5 9.5 0 0 0 4.949 1.397 9.5 9.5 0 0 0 4.948-1.397 10.2 10.2 0 0 0 3.623-3.815c-9.611-17.533-15.29-37.101-16.658-57.212 19.094 1.44 37.673 7.422 54.319 17.544a10.2 10.2 0 0 0 3.623-3.815 10.85 10.85 0 0 0 1.326-5.212c0-1.83-.457-3.628-1.326-5.212a10.2 10.2 0 0 0-3.623-3.816c3.009 0 5.965-.834 8.571-2.419s4.77-3.864 6.275-6.608c-1.505-2.745-3.669-5.024-6.275-6.609a16.5 16.5 0 0 0-8.571-2.419 10.2 10.2 0 0 0 3.623-3.815 10.85 10.85 0 0 0 1.326-5.212c0-1.83-.457-3.627-1.326-5.212a10.2 10.2 0 0 0-3.623-3.816c-16.646 10.123-35.225 16.105-54.319 17.545" clip-rule="evenodd"/></mask><path fill="#fff" fill-rule="evenodd" d="M126.46 90.54c1.368-20.11 7.047-39.678 16.658-57.211a10.2 10.2 0 0 0-3.623-3.816 9.5 9.5 0 0 0-4.948-1.396 9.5 9.5 0 0 0-4.949 1.396 10.2 10.2 0 0 0-3.622 3.816c0-3.17-.793-6.283-2.297-9.028s-3.669-5.023-6.275-6.608c-2.605 1.584-4.769 3.864-6.274 6.608a18.8 18.8 0 0 0-2.296 9.028 10.2 10.2 0 0 0-3.623-3.816 9.5 9.5 0 0 0-4.949-1.396 9.5 9.5 0 0 0-4.948 1.396 10.2 10.2 0 0 0-3.623 3.816c9.611 17.533 15.29 37.1 16.658 57.212-19.095-1.44-37.673-7.422-54.32-17.545a10.2 10.2 0 0 0-3.622 3.816 10.86 10.86 0 0 0-1.326 5.212c0 1.83.457 3.627 1.326 5.212a10.2 10.2 0 0 0 3.623 3.815c-3.01 0-5.966.834-8.571 2.42-2.607 1.584-4.77 3.863-6.275 6.608 1.505 2.744 3.669 5.024 6.275 6.608a16.5 16.5 0 0 0 8.57 2.419 10.2 10.2 0 0 0-3.622 3.816 10.85 10.85 0 0 0-1.326 5.212c0 1.829.457 3.627 1.326 5.212a10.2 10.2 0 0 0 3.623 3.815c16.646-10.122 35.224-16.104 54.319-17.544-1.368 20.111-7.047 39.679-16.658 57.212a10.17 10.17 0 0 0 3.623 3.815 9.5 9.5 0 0 0 4.948 1.397 9.5 9.5 0 0 0 4.949-1.397 10.17 10.17 0 0 0 3.623-3.815c0 3.169.792 6.283 2.296 9.027 1.505 2.745 3.669 5.024 6.274 6.609 2.606-1.585 4.77-3.864 6.275-6.609a18.8 18.8 0 0 0 2.297-9.027 10.2 10.2 0 0 0 3.622 3.815 9.5 9.5 0 0 0 4.949 1.397 9.5 9.5 0 0 0 4.948-1.397 10.2 10.2 0 0 0 3.623-3.815c-9.611-17.533-15.29-37.101-16.658-57.212 19.094 1.44 37.673 7.422 54.319 17.544a10.2 10.2 0 0 0 3.623-3.815 10.85 10.85 0 0 0 1.326-5.212c0-1.83-.457-3.628-1.326-5.212a10.2 10.2 0 0 0-3.623-3.816c3.009 0 5.965-.834 8.571-2.419s4.77-3.864 6.275-6.608c-1.505-2.745-3.669-5.024-6.275-6.609a16.5 16.5 0 0 0-8.571-2.419 10.2 10.2 0 0 0 3.623-3.815 10.85 10.85 0 0 0 1.326-5.212c0-1.83-.457-3.627-1.326-5.212a10.2 10.2 0 0 0-3.623-3.816c-16.646 10.123-35.225 16.105-54.319 17.545" clip-rule="evenodd"/><path fill="#000" d="m143.118 33.329 2.63 1.442.791-1.442-.791-1.442zM126.46 90.54l-2.993-.204-.235 3.456 3.454-.26zm13.035-61.028 1.559-2.563zm-9.897 0 1.559 2.564zm-3.622 3.816h-3l5.63 1.442zm-8.572-15.636 1.559-2.563-1.559-.948-1.558.948zm-8.57 15.636-2.631 1.442 5.631-1.442zm-3.623-3.816 1.559-2.563zm-9.897 0 1.559 2.564zM91.69 33.33l-2.63-1.442-.79 1.442.79 1.442zm16.66 57.21-.226 2.991 3.454.26-.235-3.455zM54.03 72.995l1.56-2.563-1.56-.948-1.558.948zm-3.622 3.816 2.63 1.442zm3.623 14.24v3h10.707l-9.149-5.564zm-14.846 9.027-2.63-1.442-.791 1.442.79 1.442zm6.275 6.608 1.558-2.563zm8.57 2.419 1.56 2.563 9.148-5.563H54.03zm-3.622 3.816 2.63 1.442zm0 10.424-2.63 1.442zm3.623 3.815-1.56 2.564 1.56.947 1.558-.948zm54.319-17.544 2.993.203.235-3.455-3.454.26zm-16.658 57.212-2.63-1.442-.79 1.442.79 1.442zm3.623 3.815-1.559 2.564zm9.897 0 1.559 2.564zm3.623-3.815h3l-5.631-1.442zm2.296 9.027-2.631 1.442zm6.274 6.609-1.558 2.563 1.558.948 1.559-.948zm6.275-6.609-2.631-1.442zm2.297-9.027 2.63-1.442-5.63 1.442zm3.622 3.815 1.559-2.563zm9.897 0-1.559-2.563zm3.623-3.815 2.63 1.442.791-1.442-.791-1.442zm-16.658-57.212.226-2.992-3.454-.26.235 3.455zm54.319 17.544-1.558 2.563 1.558.948 1.559-.947zm3.623-3.815-2.631-1.442zm0-10.424-2.631 1.442zm-3.623-3.816v-3h-10.707l9.149 5.563zm8.571-2.419-1.558-2.563zm6.275-6.608 2.63 1.442.791-1.442-.791-1.442zm-6.275-6.609-1.558 2.564zm-8.571-2.419-1.558-2.563-9.149 5.563h10.707zm3.623-3.815 2.631 1.442zm0-10.424 2.631-1.442zm-3.623-3.816 1.559-2.563-1.559-.948-1.558.948zm-40.292-41.11c-9.823 17.92-15.623 37.912-17.02 58.451l5.986.407c1.339-19.683 6.897-38.827 16.295-55.973zm-2.551.19a7.2 7.2 0 0 1 2.551 2.695l5.261-2.884a13.2 13.2 0 0 0-4.694-4.937zm-3.389-.96c1.179 0 2.348.327 3.389.96l3.118-5.126a12.5 12.5 0 0 0-6.507-1.833zm-3.39.96a6.5 6.5 0 0 1 3.39-.96v-6c-2.295 0-4.54.638-6.508 1.834zm-2.551 2.695a7.2 7.2 0 0 1 2.551-2.694l-3.118-5.127a13.2 13.2 0 0 0-4.694 4.937zm-7.558-9.028a15.8 15.8 0 0 1 1.928 7.586h6a21.8 21.8 0 0 0-2.666-10.47zm-5.202-5.487c2.144 1.304 3.944 3.191 5.202 5.487l5.262-2.884c-1.751-3.193-4.279-5.864-7.347-7.73zm-2.085 5.487c1.258-2.296 3.058-4.183 5.202-5.487l-3.117-5.126c-3.068 1.865-5.596 4.536-7.347 7.73zm-1.927 7.586c0-2.672.668-5.289 1.927-7.586l-5.262-2.884a21.8 21.8 0 0 0-2.665 10.47zm-8.182-1.252a7.2 7.2 0 0 1 2.551 2.694l5.261-2.884a13.2 13.2 0 0 0-4.694-4.937zm-3.39-.96c1.18 0 2.349.326 3.39.96l3.118-5.127a12.5 12.5 0 0 0-6.508-1.833zm-3.39.96a6.5 6.5 0 0 1 3.39-.96v-6c-2.294 0-4.54.636-6.507 1.833zm-2.55 2.694a7.2 7.2 0 0 1 2.55-2.694l-3.117-5.127a13.2 13.2 0 0 0-4.694 4.937zm17.02 55.566c-1.397-20.539-7.197-40.53-17.02-58.45l-5.261 2.884c9.398 17.146 14.956 36.29 16.295 55.973zM52.471 75.56c17.046 10.365 36.08 16.496 55.652 17.972l.451-5.983c-18.616-1.404-36.739-7.236-52.986-17.116zm.567 2.694a7.2 7.2 0 0 1 2.55-2.694l-3.117-5.127a13.2 13.2 0 0 0-4.695 4.937zm-.957 3.77c0-1.332.333-2.633.957-3.77l-5.262-2.884a13.85 13.85 0 0 0-1.695 6.654zm.957 3.77a7.86 7.86 0 0 1-.957-3.77h-6c0 2.327.581 4.621 1.695 6.654zm2.55 2.694a7.2 7.2 0 0 1-2.55-2.694l-5.262 2.884a13.2 13.2 0 0 0 4.695 4.937zm-8.57 7.546a13.5 13.5 0 0 1 7.011-1.983v-6c-3.566 0-7.06.99-10.13 2.856zm-5.203 5.487c1.258-2.296 3.058-4.184 5.202-5.487L43.9 90.907c-3.068 1.865-5.596 4.537-7.347 7.73zm5.202 2.603c-2.144-1.304-3.944-3.191-5.202-5.487l-5.262 2.884c1.75 3.193 4.28 5.864 7.347 7.73zm7.012 1.982c-2.451 0-4.869-.679-7.012-1.982l-3.117 5.127a19.5 19.5 0 0 0 10.13 2.855zm-.992 8.258a7.2 7.2 0 0 1 2.551-2.695l-3.117-5.126a13.2 13.2 0 0 0-4.695 4.936zm-.956 3.77a7.85 7.85 0 0 1 .956-3.77l-5.26-2.885a13.86 13.86 0 0 0-1.696 6.655zm.956 3.77a7.86 7.86 0 0 1-.956-3.77h-6c0 2.327.581 4.621 1.695 6.654zm2.551 2.694a7.2 7.2 0 0 1-2.55-2.694l-5.262 2.884a13.2 13.2 0 0 0 4.695 4.937zm52.535-17.973c-19.572 1.477-38.606 7.607-55.652 17.973l3.117 5.126c16.247-9.879 34.37-15.711 52.986-17.116zm-13.8 61.646c9.822-17.92 15.622-37.912 17.019-58.451l-5.986-.407c-1.339 19.684-6.897 38.828-16.295 55.974zm2.55-.19a7.2 7.2 0 0 1-2.55-2.694l-5.262 2.884a13.2 13.2 0 0 0 4.694 4.937zm3.389.96a6.5 6.5 0 0 1-3.39-.96l-3.117 5.127a12.5 12.5 0 0 0 6.507 1.833zm3.39-.96a6.5 6.5 0 0 1-3.39.96v6c2.295 0 4.54-.637 6.508-1.833zm2.551-2.694a7.2 7.2 0 0 1-2.551 2.694l3.118 5.127a13.2 13.2 0 0 0 4.694-4.937zm7.558 9.027a15.8 15.8 0 0 1-1.927-7.585h-6c0 3.667.916 7.277 2.665 10.469zm5.202 5.487c-2.144-1.304-3.944-3.191-5.202-5.487l-5.262 2.884c1.751 3.193 4.279 5.865 7.347 7.73zm2.085-5.487c-1.258 2.296-3.058 4.183-5.202 5.487l3.117 5.127c3.068-1.865 5.596-4.536 7.347-7.73zm1.928-7.585a15.8 15.8 0 0 1-1.928 7.585l5.262 2.884a21.8 21.8 0 0 0 2.666-10.469zm8.181 1.252a7.2 7.2 0 0 1-2.551-2.694l-5.261 2.884a13.2 13.2 0 0 0 4.694 4.937zm3.39.96a6.5 6.5 0 0 1-3.39-.96l-3.118 5.127a12.5 12.5 0 0 0 6.508 1.833zm3.389-.96a6.5 6.5 0 0 1-3.389.96v6c2.294 0 4.539-.637 6.507-1.833zm2.551-2.694a7.2 7.2 0 0 1-2.551 2.694l3.118 5.127a13.2 13.2 0 0 0 4.694-4.937zm-17.02-55.567c1.397 20.539 7.197 40.531 17.02 58.451l5.261-2.884c-9.398-17.146-14.956-36.29-16.295-55.974zm58.871 14.778c-17.046-10.366-36.08-16.496-55.652-17.973l-.452 5.983c18.617 1.405 36.74 7.237 52.987 17.116zm-.567-2.694a7.17 7.17 0 0 1-2.55 2.694l3.117 5.127a13.2 13.2 0 0 0 4.695-4.937zm.957-3.77a7.85 7.85 0 0 1-.957 3.77l5.262 2.884a13.86 13.86 0 0 0 1.695-6.654zm-.957-3.77a7.84 7.84 0 0 1 .957 3.77h6c0-2.328-.581-4.622-1.695-6.655zm-2.55-2.695a7.2 7.2 0 0 1 2.55 2.695l5.262-2.885a13.2 13.2 0 0 0-4.695-4.936zm8.571-7.545a13.5 13.5 0 0 1-7.013 1.982v6c3.567 0 7.061-.989 10.13-2.855zm5.202-5.487c-1.259 2.296-3.058 4.183-5.202 5.487l3.117 5.127c3.068-1.866 5.596-4.537 7.346-7.73zm-5.202-2.603c2.144 1.303 3.943 3.19 5.202 5.487l5.261-2.884c-1.75-3.193-4.278-5.865-7.346-7.73zm-7.013-1.983c2.452 0 4.87.68 7.013 1.983l3.117-5.127a19.5 19.5 0 0 0-10.129-2.856zm.992-8.257a7.17 7.17 0 0 1-2.55 2.694l3.117 5.127a13.2 13.2 0 0 0 4.695-4.937zm.957-3.77a7.86 7.86 0 0 1-.957 3.77l5.262 2.884a13.86 13.86 0 0 0 1.695-6.654zm-.957-3.77a7.86 7.86 0 0 1 .957 3.77h6c0-2.327-.581-4.622-1.695-6.654zm-2.55-2.694a7.17 7.17 0 0 1 2.55 2.694l5.262-2.884a13.2 13.2 0 0 0-4.695-4.937zm-52.535 17.972c19.572-1.476 38.606-7.607 55.652-17.972l-3.117-5.127c-16.247 9.88-34.37 15.712-52.987 17.116z" mask="url(#b)"/><path fill="#e01b24" fill-rule="evenodd" stroke="#000" stroke-width="3" d="M249.264 310.307c3.396 2.253 6.486 4.586 9.665 6.567 11.151 6.948 22.787 13.361 33.289 21.277 2.479 1.868 5.393 3.386 7.517 5.253 20.774 18.263 38.337 39.236 57.17 59.352l.011.013c1.365 1.454 3.041 2.622 4.296 3.94 3.045 3.199 5.559 7.121 8.59 10.507 6.593 7.364 12.072 15.703 21.477 20.488 2.861 3.568 7.062 5.709 10.738 8.406 7.17 5.259 14.088 11.478 22.014 16.286 1.888 1.145 4.155 2.247 5.906 3.677 4.575 3.736 10.189 7.753 11.812 14.447-4.369 2.136-10.495-.179-14.765-1.313-6.725-1.787-12.646-4.619-19.46-5.791 1.462 2.942 14.681 23.555 17.15 23.208-3.594.505-6.162-.944-9.26-2.722-3.876-2.226-7.307-4.474-11.249-6.815-3.007-1.785-5.841-4.276-8.853-6.3-10.75-7.224-24.909-15.937-33.714-25.367-15.787-16.921-36.838-27.558-63.964-24.748a4 4 0 0 0-.26.257c1.066 11.679 29.583 76.814-7.101 61.91-1.306-.531-2.739-.553-3.696-1.025-11.199-5.522-21.562-12.784-30.897-20.959l-.013-.011c-10.509-9.21-20.863-18.7-29.087-30.007-3.364-4.627-5.946-9.054-10.336-12.852-5.032-4.353-9.184-6.748-14.754-11.81l-.01-.009c-17.652-16.04-28.271-31.157-34.632-53.849-1.248-4.45-2.026-9.118-3.222-13.922-2.993-12.026-4.772-23.864-3.221-37.037.721-6.129 3.876-10.854 3.221-18.124-1.237-7.863-.121-16.317 1.917-23.261.596-1.958 1.905-4.489 2.953-6.567 2.466-4.887 4.213-6.51 7.786-9.719 8.738-7.848 19.672-11.257 34.899-12.608h2.148c6.855.936 12.156 2.801 17.45 5.516 1.535.788 3.074 1.609 4.563 2.364 1.586.804 2.92 1.99 4.296 2.627 1.323.613 2.478.541 3.49 1.051 3.794 1.911 4.669 5.21 6.98 8.93v3.941c-1.465 1.62-2.497-.805-4.296-.788-1.224.011-2.903 1.171-4.027 1.576-1.278.46-2.958.724-4.026 1.576-2.197 1.75-5.009 9.388-5.37 13.396-.325 15.308 4.774 20.871 16.875 29.039Z" clip-rule="evenodd"/><path fill="#f6d32d" fill-rule="evenodd" stroke="#000" stroke-width="3" d="M225.712 506v-1.576c1.428-1.405.961-4.663 3.221-5.254 1.258.742 2.826 2.676 2.953 4.466.3 4.226-1.288 5.914 1.883 9.727-6.639 1.428-4.368-3.489-8.057-7.363Zm62.014 5.516v2.889c-1.37 4.197-2.631 9.833-8.054 9.194-.756-1.603 1.205-3.404 1.611-5.779.255-1.496-.283-3.004.268-4.203.918-1.997 3.514-2.574 6.175-2.101Zm-39.464 16.286c-1.012 3.562-3.224 5.951-4.027 9.719-3.105-.806-.386-10.397 1.074-11.033.641-.279 1.509.233 1.879 0 .314.482.702.89 1.074 1.314Zm-9.396 6.567c-3.058 5.098-11.458.316-11.812-4.466 5.779-2.317 8.524 2.62 11.812 4.466Z" clip-rule="evenodd"/><path fill="#f6d32d" fill-rule="evenodd" stroke="#000" stroke-width="3" d="M286.946 507.64c.895 1.564.826 3.404-.102 4.902-2.044.894-3.888 1.315-6.214 2.417-1.523-2.735-4.63-8.522-8.135-8.952l-.072-.008c-1.73-.168-2.957 1.836-4.295 2.102-.946.188-2.514-.364-3.758 0-1.46.427-1.575 1.784-3.221 3.415-2.2 2.178-6.507 3.105-7.517 4.465-2.326 3.132-.315 9.965-4.833 10.77-1.32.235-2.561-.594-3.758-1.314.34-5.212 4.597-8.682 1.991-13.427-3.401 1.561-10.052 4.296-12.585 7.7-3.358 4.514 3.518 8.936-4.647 10.014q-.015.004-.031.004c-15.315 2.005 5.249-19.47 8.829-22.678 1.19-1.066 2.452-2.188 3.49-3.414-2.17-.194-4.395 1.826-8.054 1.05-1.828-1.506-4.885-3.988-4.563-6.829.503-4.449 10.015-4.161 16.913-3.678 3.147.221 7.545 1.607 10.201 1.051 3.832-.802 6.821-7.769 7.248-10.244.457-2.648-.695-6.398-1.127-8.866 3.752-.551 7.728 1.412 10.022 4.76 4.851 7.091-1.162 6.368-.571 13.047l.001.014.001.012.001.01c.705 7.16 11.735 8.352 14.786 13.677Z" clip-rule="evenodd"/><path fill="#e01b24" fill-rule="evenodd" stroke="#000" stroke-width="3" d="M281.251 430.894c-2.381-2.46-4.38-5.251-5.291-9.178 11.975 3.655 23.377 7.998 35.127 12.19 23.902 8.527 41.339 5.617 55.044 28.291 6.037 9.987 14.853 20.233 20.03 30.735 7.497 15.207 14.454 30.092 22.371 45.114 1.994 3.782 4.942 7.982 7.249 12.345.961 1.82 1.741 4.087 2.953 6.83.369.837 4.667 11.81.915 11.856-4.458.055-8.319-1.327-12.173-3.441l-.018-.009c-2.557-1.404-5.2-3.092-7.232-4.455l-.024-.016c-17.03-11.438-24.317-28.946-34.087-45.964-1.739-3.029-4.136-5.5-5.905-8.404-1.551-2.547-2.455-5.335-4.027-7.881-6.366-10.308-14.21-18.003-23.625-25.742-2.39-1.965-4.139-4.479-6.443-6.041-6.913-4.69-15.628-5.778-22.013-10.507-1.77-1.311-7.934-7.176-9.396-9.194-1.251-1.726-1.93-4.113-3.222-6.041l-.022-.034c-2.882-4.275-6.912-7.047-10.211-10.454Z" clip-rule="evenodd"/><path fill="#e01b24" fill-rule="evenodd" stroke="#000" stroke-width="3" d="M192.407 319.754c7.358-3.004 18.106-1.294 27.92 2.63l.016.007c4.216 1.688 7.225 5.168 11.275 5.778 18.692 2.817 16.57-14.859 39.031-4.686 10.821 4.902 22.201 13.718 30.768 21.76 35.061 32.913 63.195 70.179 100.931 100.859l.01.008c3.557 2.617 7.093 5.547 10.738 8.405 9.219 7.229 18.942 11.581 26.324 21.034 1.38 1.766 3.799 4.243 1.596 6.284h-2.148c-2.396-.429-5.383-1.138-8.054-1.838-8.069-2.115-14.949-4.614-22.283-7.355-17.451-6.523-35.397-11.971-52.617-18.912-7.302-2.944-14.96-6.801-22.55-8.931-3.492-.98-7.239-1.394-10.739-2.364-7.289-2.023-13.682-4.418-20.137-6.568l-.01-.004c-29.433-9.895-59.605-19.69-84.79-37.536l-.011-.008c-10.053-7.26-34.697-27.455-34.65-41.516.009-2.549 2.214-5.517 2.416-8.668.207-3.243-1.219-5.041-1.611-7.618-1.786-11.76 2.069-18.104 8.575-20.761Z" clip-rule="evenodd"/><path fill="#e01b24" d="M206.114 381.755c8.849 8.392 25.71 14.91 37.535 17.537 8.061 1.791 36.969 5.621 41.235-2.796 3.288-6.486-4.841-14.889-9.507-18.419"/><path stroke="#000" stroke-width="3" d="M206.114 381.755c8.849 8.392 25.71 14.91 37.535 17.537 8.061 1.791 36.969 5.621 41.235-2.796 3.288-6.486-4.841-14.889-9.507-18.419"/><path fill="#e01b24" d="M224.369 376.764c1.162 4.918 2.357 14.026-5.369 13.396z"/><path stroke="#000" stroke-width="3" d="M224.369 376.764c1.162 4.918 2.357 14.026-5.369 13.396"/><path fill="#e01b24" d="M244.504 383.593c3.716 7.077-.123 16.358-9.396 13.134z"/><path stroke="#000" stroke-width="3" d="M244.504 383.593c3.716 7.077-.123 16.358-9.396 13.134"/><path fill="#e01b24" d="M260.611 387.533c5.72 4.986 5.23 15.453-4.563 13.397z"/><path stroke="#000" stroke-width="3" d="M260.611 387.533c5.72 4.986 5.23 15.453-4.563 13.397"/><path fill="#e01b24" d="M281.014 399.616c7.103 9.342 14.927 15.832 26.411 19.401 11.869 3.688 25.714 4.975 26.281-10.416.023-.622.007-1.28-.046-1.963-.296-4.395-1.37-9.123-4.321-12.872"/><path stroke="#000" stroke-width="3" d="M281.014 399.616c7.103 9.342 14.927 15.832 26.411 19.401 11.869 3.688 25.714 4.975 26.281-10.416.023-.622.007-1.28-.046-1.963-.296-4.395-1.37-9.123-4.321-12.872"/><path fill="#e01b24" d="M300.075 404.082c8.589 6.903 18.172 16.175 30.336 13.922z"/><path stroke="#000" stroke-width="3" d="M300.075 404.082c8.589 6.903 18.172 16.175 30.336 13.922"/><path fill="#e01b24" d="M300.88 393.838c7.732 5.308 14.124 11.843 24.008 14.372 2.489.637 5.784 1.024 8.207.863"/><path stroke="#000" stroke-width="3" d="M300.88 393.838c7.732 5.308 14.124 11.843 24.008 14.372 2.489.637 5.784 1.024 8.207.863"/><path fill="#e01b24" d="M331.484 415.64c6.233 6.137 18.608 10.118 26.96 12.054 15.199 3.523 12.183-.437 11.161-11.792"/><path stroke="#000" stroke-width="3" d="M331.484 415.64c6.233 6.137 18.608 10.118 26.96 12.054 15.199 3.523 12.183-.437 11.161-11.792"/><path fill="#e01b24" d="M243.967 340.777c15.727 10.42 30.56 23.696 47.319 32.422 10.118 5.268 30.748 10.311 22.371-7.056-2.4-4.977-7.288-10.12-10.361-14.859"/><path stroke="#000" stroke-width="3" d="M243.967 340.777c15.727 10.42 30.56 23.696 47.319 32.422 10.118 5.268 30.748 10.311 22.371-7.056-2.4-4.977-7.288-10.12-10.361-14.859"/><path fill="#e01b24" d="M334.975 384.907c6.656 5.408 2.248 7.952-4.302 8.633-14.472 1.506-32.471-13.375-42.947-22.03"/><path stroke="#000" stroke-width="3" d="M334.975 384.907c6.656 5.408 2.248 7.952-4.302 8.633-14.472 1.506-32.471-13.375-42.947-22.03"/><path fill="#e01b24" d="M190.007 348.132c7.466 10.028 17.044 20.704 29.229 25.114 8.819 3.191 28.046 9.045 30.502-2.745 1.092-5.247-3.985-13.108-6.308-17.641"/><path stroke="#000" stroke-width="3" d="M190.007 348.132c7.466 10.028 17.044 20.704 29.229 25.114 8.819 3.191 28.046 9.045 30.502-2.745 1.092-5.247-3.985-13.108-6.308-17.641"/><path fill="#e01b24" d="M212.826 351.81c.737 7.116-2.473 15.616-10.738 10.244z"/><path stroke="#000" stroke-width="3" d="M212.826 351.81c.737 7.116-2.473 15.616-10.738 10.244"/><path fill="#e01b24" d="M226.517 360.215c2.19 7.446-1.907 14.558-10.738 11.821z"/><path stroke="#000" stroke-width="3" d="M226.517 360.215c2.19 7.446-1.907 14.558-10.738 11.821"/><path fill="#e01b24" d="M237.793 366.257c4.22 6.421-3.106 10.832-9.128 9.719z"/><path stroke="#000" stroke-width="3" d="M237.793 366.257c4.22 6.421-3.106 10.832-9.128 9.719"/><path fill="#e01b24" d="M277.256 343.404c6.86 7.746 7.412 23.842-6.443 16.549z"/><path stroke="#000" stroke-width="3" d="M277.256 343.404c6.86 7.746 7.412 23.842-6.443 16.549"/><path fill="#e01b24" d="M286.115 369.934c13.966 7.45 9.303-9.308 5.369-15.235z"/><path stroke="#000" stroke-width="3" d="M286.115 369.934c13.966 7.45 9.303-9.308 5.369-15.235"/><path fill="#f6d32d" fill-rule="evenodd" stroke="#000" stroke-width="3" d="M250.179 265.77v-4.203c-1.321-1.471-1.567-3.444-2.416-4.728-2.652-4.013-7.175-5.127-11.275-7.092-1.649 1.276-2.795 3.044-2.953 5.779-.833 1.024-2.689 1.047-3.49 2.101.217 2.152-.676 5.39 1.074 6.042 4.312-.845 5.504 2.827 8.054 3.152 2.383.304 4.735-2.341 7.248-2.102 1.733.166 2.494 2.617 3.758 1.051Z" clip-rule="evenodd"/><path fill="#f6d32d" d="M194.498 262.093c5.154-4.939 11.985-13.773 19.497-13.382 5.576.293 10.277 4.869 11.13 10.681-4.394-2.093-4.105 1.217-8.067 3.191-5.207 2.595-7.386-2.224-11.958-2.451-4.236-.211-6.717 1.933-10.847 2.223"/><path stroke="#000" stroke-width="2" d="M194.498 262.093c5.154-4.939 11.985-13.773 19.497-13.382 5.576.293 10.277 4.869 11.13 10.681-4.394-2.093-4.105 1.217-8.067 3.191-5.207 2.595-7.386-2.224-11.958-2.451-4.236-.211-6.717 1.933-10.847 2.223"/><path fill="#000" fill-rule="evenodd" d="M214.474 251.323h-3.221c-5.021.888-3.603 9.369 1.074 9.456h2.147c1.869-.71 3.623-1.533 4.296-3.414v-1.314c-1.118-1.883-1.754-4.238-4.296-4.728m2.953 3.677c.287 1.101-.876 2.691-1.879.526-.02-1.311 1.454-1.612 1.879-.526" clip-rule="evenodd"/><path stroke="#000" stroke-width="3" d="M300.905 658.579s-298.5-112.32-298.5-397.772V2.255h597v258.552c0 285.452-298.5 397.772-298.5 397.772Z" clip-rule="evenodd"/></g><defs><clipPath id="a"><path fill="#fff" d="M.905.079h600v660h-600z"/></clipPath></defs></svg>