<svg xmlns="http://www.w3.org/2000/svg" width="601" height="661" fill="none" viewBox="0 0 601 661"><mask id="a" fill="#fff"><path fill-rule="evenodd" d="M2 269.636c6.053 268.84 276.69 380.649 297.172 388.729H300v-656H2z" clip-rule="evenodd"/></mask><path fill="#f6d32d" fill-rule="evenodd" d="M2 269.636c6.053 268.84 276.69 380.649 297.172 388.729H300v-656H2z" clip-rule="evenodd"/><path fill="#000" d="m299.172 658.365-.55 1.396.265.104h.285zM2 269.636H.5v.033zm298 388.729v1.5h1.5v-1.5zm0-656h1.5v-1.5H300zm-298 0v-1.5H.5v1.5zM299.723 656.97c-10.164-4.01-82.764-33.905-153.556-96.31C75.388 498.267 6.514 403.47 3.5 269.602l-3 .067c3.04 134.973 72.509 230.5 143.683 293.242 71.161 62.73 144.12 92.779 154.439 96.85zm.277-.105h-.828v3H300zm-1.5-654.5v656h3v-656zM2 3.865h298v-3H2zm1.5 265.771V2.366h-3v267.27z" mask="url(#a)"/><mask id="b" fill="#fff"><path fill-rule="evenodd" d="M598.897 1.95h-597v258.501q0 4.622.103 9.185V2.366h298v655.999h-.828a97 97 0 0 0 1.225.476s298.5-112.19 298.5-398.39z" clip-rule="evenodd"/></mask><path fill="#e01b24" fill-rule="evenodd" d="M598.897 1.95h-597v258.501q0 4.622.103 9.185V2.366h298v655.999h-.828a97 97 0 0 0 1.225.476s298.5-112.19 298.5-398.39z" clip-rule="evenodd"/><path fill="#000" d="M1.897 1.95V.45h-1.5v1.5zm597 0h1.5V.45h-1.5zM2 269.637l-1.5.033 3-.033zM2 2.366v-1.5H.5v1.5zm298 0h1.5v-1.5H300zm0 655.999v1.5h1.5v-1.5zm-.828 0v-1.5l-.55 2.896zm1.225.476-.528 1.404.528.198.528-.198zM1.897 3.451h597v-3h-597zm1.5 257V1.951h-3v258.5zm.103 9.151a407 407 0 0 1-.103-9.151h-3q0 4.64.103 9.218zm0 .034V2.366h-3v267.27zM2 3.866h298v-3H2zm296.5-1.5v655.999h3v-656zm1.5 654.499h-.828v3H300zm.397 1.976.528-1.404-.001-.001-.003-.001-.013-.005-.056-.021-.226-.086q-.304-.116-.903-.353l-1.101 2.791q.611.24.926.361l.238.091.077.029.004.002.002.001zm297-398.39c0 142.515-74.303 241.731-148.725 305.38-37.211 31.824-74.427 54.733-102.343 69.686-13.956 7.475-25.582 12.96-33.715 16.573a333 333 0 0 1-9.431 4.032 187 187 0 0 1-3.264 1.296l-.039.014-.009.004c-.001 0-.002.001.526 1.405s.529 1.403.532 1.402l.012-.004.043-.016.166-.064q.22-.084.65-.252a194 194 0 0 0 2.516-1.007c2.199-.897 5.42-2.248 9.516-4.068 8.192-3.64 19.885-9.156 33.914-16.671 28.053-15.026 65.461-38.052 102.876-70.05 74.828-63.996 149.775-163.975 149.775-307.66zm0-258.5v258.5h3V1.951z" mask="url(#b)"/><path fill="#e01b24" stroke="#000" stroke-width="3" d="M109.661 135.283c-1.982 2.411-.188 4.24 3.039 7.101 3.891 4.246 7.86 8.421 7.524 15.671-1.779 8.657-7.947 15.591-11.988 23.329-2.213 4.58-1.576 7.97-1.129 11.468 2.986 4.063 9.138 7.848 15.817 10.064 2.274 4.217 3.142 8.482 3.198 12.773-26.976 45.161-13.255 74.316 8.464 101.169-2.354 21.025-19.151 38.415-13.844 44.903 3.07 3.753 14.84 10.423 14.684 13.372-.416 7.876-8.588 1.824-14.617 7.924-4.408.279-6.497.582-6.394 4.043 1.856 3.101 3.901.772 7.041-.94 2.248-1.165 5.033-.957 7.811-.173-2.584 4.821-3.95 7.804-4.935 13.113-1.715 2.618-4.453 4.363-1.606 6.363 3.511.822 3.596-1.493 3.857-4.962 1.574-2.547 5.187-12.464 9.007-13.032 2.148 4.344-2.562 13.922 1.335 18.029 1.746 3.11 1.269 4.234 4.132 4.446 3.605-2.215.543-3.755-1.617-6.347-.309-5.091 2.19-12.607 3.537-16.562 5.29-2.414 4.95 4.795 9.221 6.601 2.202 3.559 5.547 3.947 6.746 2.388 1.289-1.675-1.084-4.397-4.248-5.659-4.438-11.166-4.67-10.252-6.232-17.317-1.842-8.326-10.009-10.267-12.756-16.219 8.462-11.47 11.713-12.427 17.533-12.893 4.495-.359 8.212 5.427 25.859 18.985 75.928 58.33-80.075 168.291-101.82 34.461l-2.81 2.712c1.93 145.212 223.484 51.107 121.725-53.75-8.725-8.989-11.873-16.508-13.166-25.945.874-6.241 1.856-14.416 8.957-26.336 5.375 3.751 5.905 12.138 13.777 15.415 6.68 2.782 5.683 2.844 15.895 9.177 1.485 4.156 2.576 6.665 4.451 5.743 2.431-2.787 1.464-3.421-.792-7.625-1.026-4.523-8.182-5.457-4.876-10.24 4.131-.63 11.969-1.767 16.927-.567 2.506 2.86 3.718 4.792 5.45 2.989 1.709-2.765-.825-3.735-3.081-5.126-4.985-4.163-11.754-2.297-17.568-4.491 1.231-3.66 11.629-5.472 14.414-6.574 4.549.546 6.773-.36 7.047-3.193-.295-3.253-5.067-.871-8 .706-5.4.035-8.552.885-13.753 2.581-.502-3.841-.295-5.386 1.702-7.533 2.724-3.847 4.084-4.441 1.735-7.366-2.174-1.512-3.349 1.571-4.887 6.053-7.066 4.861-5.781 10.107-13.607 9.131-2.93-.365-9.048-17.517-12.202-21.199-5.289-6.174-12.854 11.624-27.891 14.878-12.775-31.568-5.052-37.892-.135-51.423 1.423-.089 3.023-.224 4.998-.59 5.916 3.809 12.646 11.293 17.683 11.067 3.004-1.847 6.03-3.505 8.207-8.101 3.489-8.002 5.021-17.134 10.645-23.952 5.435-4.811 11.177-4.368 16.924-4.003 3.823 1.751 8.075-.66 7.619-2.006-.407-1.204-4.63-3.785-8.152-2.065-4.601-.583-8.78-.005-12.99-1.291.821-4.098 5.444-7.553 8.709-11.243 5.023-3.741 7.566-2.296 6.174-5.766-2.481-2.088-6.456.037-7.365 2.811-4.095 3.758-8.135 7.559-12.514 10.988-1.671-3.764-1.131-6.89-1.111-10.157 2.017-5.021 2.396-8.08-2.073-7.233-1.915 2.158-.354 1.453-.588 7.305-.896 3.927-1.418 7.882-3.108 11.739l-5.255-6.278c-1.758-3.15-3.43-5.45-6.728-4.578-2.473 3.054 1.236 5.223 4.41 7.083 1.796 4.259 6.817 6.562 3.015 14.209 1.748 4.706-3.331 10.586-8.401 15.657-8.785-4.488-12.777-18.055-18.594-28.528-.097-.565-.188-1.121-.296-1.703-1.77-13.298 10.129-14.19 17.69-17.682 17.269-7.978 12.755-22.708 12.117-35.193-.469-9.2-8.382-11.821-14.545-9.588-12.671 4.592-32.011 4.92-28.607 26.103-1.096 10.168-4.898 18.379-9.613 25.859-8.126-.098-15.49-.62-22.979-3.966.767-7.129 2.168-14.781 6.928-16.373 3.569-7.759 8.489-5.291 12.932-6.565 3.689 2.121 6.331 1.99 7.47-1.317-.617-3.507-3.908-1.79-6.937-1.849l-8.211-.365c1.942-3.736 4.69-6.651 7.185-9.813 2.745-.732 4.762-3.222 4.695-4.238-.083-1.259-2.378-1.369-6.297 2.14-2.531 2.066-4.641 4.462-8.62 5.523-.241-5.076.461-11.063.719-16.617 2.02-4.364.004-7.605-2.129-9.249-3.067 2.388-2.033 4.483-.939 10.122-.823 4.858-.62 10.636-3.295 13.846-3.643-2.47-5.781-6.086-9.122-9.303-1.976-4.746-3.313-6.358-6.582-4.956Z"/><path fill="#f6d32d" stroke="#000" stroke-width="3" d="M494.737 462.841c1.982-2.411.188-4.241-3.039-7.101-3.89-4.247-7.859-8.422-7.522-15.672 1.779-8.657 7.947-15.591 11.988-23.329 2.213-4.579 1.576-7.969 1.129-11.467-2.985-4.064-9.137-7.849-15.815-10.065-2.275-4.217-3.142-8.482-3.198-12.773 26.978-45.16 13.259-74.316-8.459-101.17 2.355-21.024 19.153-38.414 13.847-44.902-3.07-3.753-14.84-10.424-14.684-13.373.417-7.875 8.588-1.823 14.617-7.923 4.408-.278 6.498-.581 6.394-4.043-1.855-3.1-3.901-.772-7.04.94-2.248 1.165-5.033.957-7.811.173 2.584-4.821 3.95-7.804 4.935-13.113 1.715-2.618 4.453-4.363 1.606-6.363-3.51-.822-3.595 1.492-3.857 4.961-1.574 2.547-5.187 12.464-9.007 13.032-2.148-4.343 2.563-13.922-1.334-18.028-1.747-3.111-1.27-4.235-4.132-4.446-3.605 2.214-.543 3.754 1.616 6.346.309 5.091-2.19 12.607-3.537 16.562-5.29 2.414-4.95-4.796-9.221-6.602-2.202-3.559-5.547-3.947-6.746-2.388-1.289 1.676 1.084 4.397 4.248 5.659 4.437 11.167 4.669 10.252 6.231 17.318 1.841 8.326 10.008 10.268 12.755 16.219-8.462 11.47-11.713 12.427-17.533 12.892-4.495.36-8.212-5.427-25.859-18.985-75.925-58.334 80.083-168.288 101.822-34.457l2.811-2.712c-1.923-145.212-223.482-51.117-121.728 53.744 8.724 8.99 11.872 16.509 13.165 25.946-.875 6.241-1.858 14.416-8.959 26.336-5.375-3.752-5.904-12.138-13.776-15.417-6.68-2.781-5.683-2.844-15.894-9.177-1.485-4.156-2.576-6.665-4.452-5.743-2.43 2.787-1.464 3.421.792 7.625 1.026 4.523 8.182 5.457 4.875 10.24-4.131.63-11.969 1.766-16.926.566-2.506-2.86-3.718-4.792-5.451-2.989-1.709 2.765.825 3.735 3.082 5.126 4.984 4.163 11.754 2.297 17.567 4.492-1.231 3.66-11.629 5.471-14.414 6.573-4.549-.546-6.773.36-7.047 3.193.294 3.253 5.067.871 8-.706 5.4-.034 8.552-.884 13.752-2.58.503 3.841.296 5.386-1.702 7.533-2.724 3.846-4.084 4.441-1.735 7.366 2.174 1.512 3.349-1.571 4.888-6.052 7.066-4.862 5.781-10.107 13.607-9.131 2.93.365 9.047 17.517 12.201 21.2 5.289 6.174 12.855-11.623 27.892-14.877 12.773 31.569 5.05 37.892.132 51.423-1.422.089-3.023.223-4.998.59-5.916-3.81-12.646-11.294-17.683-11.069-3.004 1.847-6.029 3.505-8.207 8.102-3.49 8.001-5.022 17.133-10.646 23.95-5.435 4.811-11.177 4.368-16.924 4.003-3.823-1.751-8.075.66-7.62 2.006.408 1.203 4.631 3.784 8.152 2.065 4.601.583 8.78.005 12.99 1.292-.821 4.097-5.443 7.553-8.709 11.242-5.023 3.741-7.567 2.295-6.174 5.766 2.481 2.088 6.456-.037 7.365-2.811 4.095-3.758 8.136-7.559 12.514-10.988 1.671 3.765 1.131 6.89 1.111 10.158-2.017 5.021-2.396 8.079 2.073 7.233 1.915-2.158.353-1.453.587-7.305.897-3.926 1.419-7.882 3.109-11.738l5.255 6.277c1.758 3.151 3.43 5.451 6.728 4.579 2.473-3.054-1.236-5.224-4.41-7.083-1.796-4.259-6.816-6.563-3.014-14.21-1.748-4.706 3.331-10.586 8.402-15.656 8.785 4.488 12.776 18.056 18.592 28.529.098.565.188 1.121.296 1.702 1.77 13.299-10.13 14.19-17.691 17.682-17.269 7.977-12.755 22.707-12.119 35.192.47 9.201 8.382 11.822 14.545 9.589 12.671-4.591 32.012-4.918 28.608-26.101 1.097-10.169 4.899-18.379 9.615-25.859 8.126.098 15.49.62 22.978 3.967-.767 7.129-2.168 14.781-6.929 16.373-3.569 7.758-8.489 5.291-12.932 6.564-3.689-2.121-6.331-1.99-7.47 1.317.618 3.507 3.909 1.789 6.938 1.849l8.21.366c-1.942 3.736-4.69 6.65-7.185 9.812-2.746.732-4.762 3.222-4.695 4.238.083 1.259 2.377 1.369 6.297-2.14 2.531-2.066 4.641-4.461 8.62-5.522.24 5.076-.462 11.062-.719 16.617-2.021 4.363-.005 7.605 2.127 9.248 3.068-2.387 2.034-4.483.94-10.122.824-4.857.621-10.635 3.296-13.845 3.643 2.47 5.781 6.086 9.121 9.303 1.977 4.746 3.313 6.359 6.582 4.957Z"/><path stroke="#000" stroke-width="3" d="M1.897 1.95h597v258.501c0 286.2-298.5 398.39-298.5 398.39s-298.5-112.19-298.5-398.39z"/></svg>