<svg xmlns="http://www.w3.org/2000/svg" width="600" height="660" fill="none" viewBox="0 0 600 660"><path fill="#26a269" fill-rule="evenodd" d="M300 658.213s298.5-112.32 298.5-397.772V1.889H1.5v258.552C1.5 545.893 300 658.213 300 658.213" clip-rule="evenodd"/><path fill="#fff" fill-rule="evenodd" stroke="#fff" stroke-width="3.012" d="M48.012 442.69c84.568 152.224 250.014 215.515 250.014 215.515S467.473 594.914 552.04 442.69z" clip-rule="evenodd"/><path fill="#fff" fill-rule="evenodd" d="M313.912 261.841c-5.732-2.38-27.156 28.589-22.518 38.048 5.507 11.231 17.428 22.093 26.815 25.077 2.11 5.691-3.943 8.404-6.755 13.568-13.631 15.98-13.637 18.428-17.049 26.072-1.38 3.091-1.487 9.59-3.728 12.158-2.919 4.889-2.246 10.138 1.26 12.319 3.195-5.345 12.378-4.196 13.165-4.441-1.578-4.621 3.495-7.805 7.122-8.829 2.247-5.014-3.971-7.936-1.701-11.831 4.223-7.397 20.702-16.843 25.101-24.128 8.544-6.318 8.195-9.275 10.8-13.826 3.262-5.257-7.145-13.092-2.974-17.729 5.215-5.798 15.923-12.823 23.844-26.964" clip-rule="evenodd"/><path stroke="#000" stroke-width="3" d="M313.912 261.841c-5.732-2.38-27.156 28.589-22.518 38.048 5.507 11.231 17.428 22.093 26.815 25.077 2.11 5.691-3.943 8.404-6.755 13.568-13.631 15.98-13.637 18.428-17.049 26.072-1.38 3.091-1.487 9.59-3.728 12.158-2.919 4.889-2.246 10.138 1.26 12.319 3.195-5.345 12.378-4.196 13.165-4.441-1.578-4.621 3.495-7.805 7.122-8.829 2.247-5.014-3.971-7.936-1.701-11.831 4.223-7.397 20.702-16.843 25.101-24.128 8.544-6.318 8.195-9.275 10.8-13.826 3.262-5.257-7.145-13.092-2.974-17.729 5.215-5.798 15.923-12.823 23.844-26.964"/><path fill="#f6d32d" fill-rule="evenodd" stroke="#000" stroke-width="3" d="M289.509 403.234c6.44-.85 11.299-4.651 13.954-10.26 1.296-3.608 1.393-7.89-2.522-8.845-3.902 1.128-7.39 2.41-10.803 4.889.047 4.585-1.184 9.718-.629 14.216Z" clip-rule="evenodd"/><path fill="#f6d32d" fill-rule="evenodd" stroke="#000" stroke-width="3" d="M294.571 403.539c6.574-1.328 10.862-5.707 12.451-11.876.591-3.94-.22-8.523-4.53-9.288-3.852 1.461-7.238 3.058-10.29 5.931 1.026 4.896.829 10.462 2.369 15.233Z" clip-rule="evenodd"/><path fill="#fff" fill-rule="evenodd" d="M289.312 200.336c-9.845 4.025-19.596 5.902-30.122 5.529-9.123-.47-20.729-5.364-31.75-3.684-11.697 1.784-14.545 5.17-11.416 11.87-3.787 7.137-7.843 21.955-3.11 28.758 7.835 10.15-2.784 1.919-6.664 14.77-.924 1.446-.128 1.039 2.545 4.268.001 2.657-.62 2.351-3.295 3.905-3.871-1.448-8.781 1.312-11.627-1.896-1.992 2.286-1.544-9.717.141-12.339.07-5.923-2.546-14.447.792-21.759 2.242-9.552-.227-13.294 3.176-22.586 7.092-20.096 19.761-23.388 33.523-30.856-.302-.979 27.938-6.255 52.094-3.217" clip-rule="evenodd"/><path stroke="#000" stroke-width="3" d="M289.312 200.336c-9.845 4.025-19.596 5.902-30.122 5.529-9.123-.47-20.729-5.364-31.75-3.684-11.697 1.784-14.545 5.17-11.416 11.87-3.787 7.137-7.843 21.955-3.11 28.758 7.835 10.15-2.784 1.919-6.664 14.77-.924 1.446-.128 1.039 2.545 4.268.001 2.657-.62 2.351-3.295 3.905-3.871-1.448-8.781 1.312-11.627-1.896-1.992 2.286-1.544-9.717.141-12.339.07-5.923-2.546-14.447.792-21.759 2.242-9.552-.227-13.294 3.176-22.586 7.092-20.096 19.761-23.388 33.523-30.856-.302-.979 27.938-6.255 52.094-3.217"/><path fill="#f6d32d" fill-rule="evenodd" stroke="#000" stroke-width="3" d="M193.001 278.378c6.365-1.299 10.95-5.43 13.211-11.21 1.045-3.689.846-7.966-3.125-8.644-3.814 1.399-7.205 2.922-10.439 5.634.363 4.568-.51 9.773.353 14.22Z" clip-rule="evenodd"/><path fill="#f6d32d" fill-rule="evenodd" stroke="#000" stroke-width="3" d="M198.071 278.332c6.466-1.786 10.441-6.454 11.602-12.718.318-3.971-.808-8.485-5.159-8.946-3.743 1.728-7.01 3.558-9.857 6.637 1.361 4.811 1.548 10.376 3.414 15.027Z" clip-rule="evenodd"/><path fill="#fff" fill-rule="evenodd" d="M397.206 251.27c23.139-11.681 41.029 47.525 51.121 74.692-2.798 3.563-2.893 13.057 2.811 22.325 3.887 6.315 9.901 11.629 16.833 17.478-6.388-20.033-2.041-6.887-6.08-20.109 3.568 8.559 6.181 14.652 16.109 19.426-6.044-21.047-12.816-32.369-25.202-41.705-15.084-37.106-24.522-83.344-61.712-84.705" clip-rule="evenodd"/><path stroke="#000" stroke-width="3" d="M397.206 251.27c23.139-11.681 41.029 47.525 51.121 74.692-2.798 3.563-2.893 13.057 2.811 22.325 3.887 6.315 9.901 11.629 16.833 17.478-6.388-20.033-2.041-6.887-6.08-20.109 3.568 8.559 6.181 14.652 16.109 19.426-6.044-21.047-12.816-32.369-25.202-41.705-15.084-37.106-24.522-83.344-61.712-84.705"/><path fill="#fff" fill-rule="evenodd" stroke="#000" stroke-width="3" d="M284.328 252.557c2.341-1.655 14.462-.575 4.324-7.403-10.002-6.737-33.609-23.312-35.3-25.537-7.984-5.181-18.255-36.097-25.287-42.606-16.872-15.618-42.409-44.091-41.752-49.503 2.249-18.523 19.021-54.846 35.504-60.21 7.703-2.508 22.999.754 25.425 1.412 14.747 3.994 36.443 21.448 46.976 34.13 18.947 12.95 19.444 21.906 26.549 37.07 5.775 15.173 15.891 32.131 22.007 42.92 11.396 12.324 29.715 28.74 39.535 42.297.651.9 3.937 6.568 8.005 12.204 1.613 2.235 2.551 4.515 3.954 6.729 1.146 1.808-14.498 31.633-27.976 36.923-1.598.627-33.773-14.327-48.627-17.145-15.862-3.01-23.553-5.856-33.337-11.281Z" clip-rule="evenodd"/><path fill="#fff" fill-rule="evenodd" d="M299.094 184.407c-10.052 9.468-23.856 13.169-33.766 16.531-12.001 3.23 4.006-.566-20.408 6.776-10.217 2.662-19.12-7.436-28.581-10.957-.745.424-35.337-7.823-42.149-.589-7.133 1.723-.91 11.47-5.494 13.975-2.893 1.563-6.56-3.426-9.001 4.095-3.035-.131-15.999-6.872-12.89-7.19-.607 3.454 2.368-22.804 18.27-24.489 15.25-9.11 56.593-6.947 60.087-5.488 3.554-2.179 8.159 3.03 11.8.251 10.252-11.744 13.263-10.628 17.957-17.925.582-.845 11.216-6.828 11.915-7.581" clip-rule="evenodd"/><path stroke="#000" stroke-width="3" d="M299.094 184.407c-10.052 9.468-23.856 13.169-33.766 16.531-12.001 3.23 4.006-.566-20.408 6.776-10.217 2.662-19.12-7.436-28.581-10.957-.745.424-35.337-7.823-42.149-.589-7.133 1.723-.91 11.47-5.494 13.975-2.893 1.563-6.56-3.426-9.001 4.095-3.035-.131-15.999-6.872-12.89-7.19-.607 3.454 2.368-22.804 18.27-24.489 15.25-9.11 56.593-6.947 60.087-5.488 3.554-2.179 8.159 3.03 11.8.251 10.252-11.744 13.263-10.628 17.957-17.925.582-.845 11.216-6.828 11.915-7.581"/><path fill="#f6d32d" fill-rule="evenodd" stroke="#000" stroke-width="3" d="M137.202 219.318c5.683 3.127 11.864 2.951 17.358.018 3.204-2.129 5.848-5.51 3.276-8.592-3.811-1.402-7.381-2.436-11.609-2.465-2.71 3.707-6.775 7.1-9.025 11.039Z" clip-rule="evenodd"/><path fill="#f6d32d" fill-rule="evenodd" stroke="#000" stroke-width="3" d="M141.083 222.562c6.078 2.823 12.147 1.844 17.122-2.168 2.836-2.814 4.932-6.973 1.928-10.137-3.97-1.107-7.648-1.828-11.822-1.327-2.11 4.538-5.605 8.89-7.228 13.632Z" clip-rule="evenodd"/><path fill="#fff" fill-rule="evenodd" d="M215.928 118.888c2.079 6.34-.185 12.001-6.542 19.076z" clip-rule="evenodd"/><path stroke="#000" stroke-width="3" d="M215.928 118.888c2.079 6.34-.185 12.001-6.542 19.076"/><path fill="#fff" fill-rule="evenodd" d="m211.564 122.653-31.097 14.441c6.887 9.695 6.112 17.162 14.172 20.813 8.738 3.958 16.517-7.531 29.856 6.533" clip-rule="evenodd"/><path stroke="#000" stroke-width="3" d="m211.564 122.653-31.097 14.441c6.887 9.695 6.112 17.162 14.172 20.813 8.738 3.958 16.517-7.531 29.856 6.533"/><path fill="#f6d32d" fill-rule="evenodd" stroke="#000" stroke-width="3" d="M128.74 79.205c4.818 6.396 10.787 5.927 16.233 4.378 5.649-1.607 11.37-3.34 16.707-5.864 11.561-5.466 33.136-6.439 34.213 9.888.212 3.217-3.967 5.55-6.816 6.804-3.124 1.376-3.669-3.282-4.889-5.233-7.671-12.264-19.666-3.766-31.045-.372-9.354 2.79-23 2.725-24.403-9.601Z" clip-rule="evenodd"/><path fill="#fff" fill-rule="evenodd" d="M211.665 143.715c-6.783 7.493-6.3-3.369-11.636-.595-4.099 1.638-8.421 2.804-12.669 4.034-4.763 1.38-4.952 5.118-9.236 6.92-4.187 1.761-7.727 4.356-11.472 4.726-4.201.415-8.556-1.651-12.317-4.572-3.398-2.64-.231-8.696.474-13.101l2.582-16.148c1.098-6.859-1.454-11.921-2.15-19.07-1.026-10.536 6.77-14.155 8.172-17.896 1.671-4.46 3.768-7.47 6.751-11.321 5.949-7.68 15.168-10.567 24.341-8.174 16.497-5.95 34.031-9.816 52.938-.2.799.406 2.44 1.075 3.244 1.53" clip-rule="evenodd"/><path stroke="#000" stroke-width="3" d="M211.665 143.715c-6.783 7.493-6.3-3.369-11.636-.595-4.099 1.638-8.421 2.804-12.669 4.034-4.763 1.38-4.952 5.118-9.236 6.92-4.187 1.761-7.727 4.356-11.472 4.726-4.201.415-8.556-1.651-12.317-4.572-3.398-2.64-.231-8.696.474-13.101l2.582-16.148c1.098-6.859-1.454-11.921-2.15-19.07-1.026-10.536 6.77-14.155 8.172-17.896 1.671-4.46 3.768-7.47 6.751-11.321 5.949-7.68 15.168-10.567 24.341-8.174 16.497-5.95 34.031-9.816 52.938-.2.799.406 2.44 1.075 3.244 1.53"/><path fill="#f6d32d" fill-rule="evenodd" stroke="#000" stroke-width="3" d="M135.743 60.028c3.728 7.083 9.695 7.57 15.319 6.906 5.833-.688 11.758-1.488 17.43-3.131 12.289-3.559 33.74-1.086 32.182 15.208-.307 3.211-4.806 4.85-7.819 5.635-3.304.86-3.094-3.825-3.986-5.945-5.603-13.332-18.805-6.85-30.582-5.308-9.68 1.266-23.138-.97-22.544-13.365Z" clip-rule="evenodd"/><path fill="#fff" fill-rule="evenodd" d="M199.914 96.133c2.666 5.148 3.74 12.311 2.536 22.356z" clip-rule="evenodd"/><path stroke="#000" stroke-width="3" d="M199.914 96.133c2.666 5.148 3.74 12.311 2.536 22.356"/><path fill="#fff" fill-rule="evenodd" d="M165.975 113.638c1.385-2.681 1.095-2.6 2.672-3.423 6.327-3.306 13.55 4.637 16.458-5.975-1.817-1.942-8.655-3.586-11.746.811-.738 1.05-.14 3.915-3.246 4.403" clip-rule="evenodd"/><path stroke="#000" stroke-width="2" d="M165.975 113.638c1.385-2.681 1.095-2.6 2.672-3.423 6.327-3.306 13.55 4.637 16.458-5.975-1.817-1.942-8.655-3.586-11.746.811-.738 1.05-.14 3.915-3.246 4.403"/><path fill="#fff" fill-rule="evenodd" d="M174.397 104.012c5.568-2.814 8.9-3.144 11.696-7.3z" clip-rule="evenodd"/><path stroke="#000" stroke-width="2" d="M174.397 104.012c5.568-2.814 8.9-3.144 11.696-7.3"/><path fill="#3584e4" stroke="#000" stroke-width="2" d="M178.956 102.435c-1.572-.017-2.866 1.53-2.889 3.455s1.232 3.499 2.805 3.516c1.572.017 2.866-1.53 2.889-3.455.024-1.925-1.232-3.499-2.805-3.516Z"/><path fill="#fff" fill-rule="evenodd" d="M188.654 88.262c-.093-2.278 1.518-3.624 4.367-6.28 3.438-3.205 10.308-3.079 15.599-6.54 5.105-3.34 9.245-8.901 12.153-13.235 1.156 5.274-.243 30.94-20.485 28.35-3.113-.397-5.137 5.254-8.609 4.336" clip-rule="evenodd"/><path stroke="#000" stroke-width="3" d="M188.654 88.262c-.093-2.278 1.518-3.624 4.367-6.28 3.438-3.205 10.308-3.079 15.599-6.54 5.105-3.34 9.245-8.901 12.153-13.235 1.156 5.274-.243 30.94-20.485 28.35-3.113-.397-5.137 5.254-8.609 4.336"/><path fill="#fff" fill-rule="evenodd" d="M165.235 141.167c-.756 5.051-9.15 10.672 3.203 9.039.654-.086 2.211-4.419 1.477-5.043" clip-rule="evenodd"/><path stroke="#000" stroke-width="3" d="M165.235 141.167c-.756 5.051-9.15 10.672 3.203 9.039.654-.086 2.211-4.419 1.477-5.043"/><path fill="#fff" fill-rule="evenodd" d="M174.575 155.752c1.749-1.137 3.659-1.394 5.13-2.704 4.594-4.091 7.562-10.357 9.708-19.473" clip-rule="evenodd"/><path stroke="#000" stroke-width="3" d="M174.575 155.752c1.749-1.137 3.659-1.394 5.13-2.704 4.594-4.091 7.562-10.357 9.708-19.473"/><path fill="#fff" fill-rule="evenodd" d="M194.685 93.394c-1.787-10.171 16.961-10.22 25.942-28.717z" clip-rule="evenodd"/><path stroke="#000" stroke-width="3" d="M194.685 93.394c-1.787-10.171 16.961-10.22 25.942-28.717"/><path fill="#f6d32d" fill-rule="evenodd" stroke="#000" stroke-width="3" d="M409.914 405.893c6.133-2.132 10.118-6.835 11.577-12.864.536-3.794-.241-8.007-4.268-8.152-3.591 1.893-6.746 3.852-9.584 6.969.978 4.479.817 9.754 2.275 14.047Z" clip-rule="evenodd"/><path fill="#f6d32d" fill-rule="evenodd" stroke="#000" stroke-width="3" d="M414.932 405.171c6.168-2.628 9.476-7.781 9.778-14.142-.223-3.978-1.949-8.302-6.324-8.182-3.476 2.208-6.467 4.456-8.871 7.885 2 4.588 2.939 10.078 5.417 14.439Z" clip-rule="evenodd"/><path fill="#fff" fill-rule="evenodd" d="M338.968 254.209c.883 6.897-2.72 17.248-2.626 21.77.285 13.663 3.677 26.457 10.941 32.723 2.283 1.693 7.982 7.358 11.39 8.761 5.876 6.294 22.999 8.183 29.616 12.494 12.692 14.795 17.46 29.634 17.367 42.272-.229 4.51 3.455 15.669 3.709 19.062 1.43 5.508 6.333-6.261 10.354-7.197-2.948-7.651 3.25-9.944 3.629-10.672-.704-2.809-3.175-4.813-5.271-7.392-1.994-5.122-3.325-9.899-4.504-14.249-2.301-8.197-1.252-11.281-3.35-19.524-2.86-5.175 1.577-10.443.353-15.717-1.452-6.01-10.196-7.577-10.567-13.791-.463-7.769 5.457-22.797.951-38.36-.389-3.298-3.332-13.887-7.415-22.011-.454-.903-2.196-2.959-2.336-3.618" clip-rule="evenodd"/><path stroke="#000" stroke-width="3" d="M338.968 254.209c.883 6.897-2.72 17.248-2.626 21.77.285 13.663 3.677 26.457 10.941 32.723 2.283 1.693 7.982 7.358 11.39 8.761 5.876 6.294 22.999 8.183 29.616 12.494 12.692 14.795 17.46 29.634 17.367 42.272-.229 4.51 3.455 15.669 3.709 19.062 1.43 5.508 6.333-6.261 10.354-7.197-2.948-7.651 3.25-9.944 3.629-10.672-.704-2.809-3.175-4.813-5.271-7.392-1.994-5.122-3.325-9.899-4.504-14.249-2.301-8.197-1.252-11.281-3.35-19.524-2.86-5.175 1.577-10.443.353-15.717-1.452-6.01-10.196-7.577-10.567-13.791-.463-7.769 5.457-22.797.951-38.36-.389-3.298-3.332-13.887-7.415-22.011-.454-.903-2.196-2.959-2.336-3.618"/><path stroke="#000" stroke-width="3" d="M300 658.213S1.5 545.893 1.5 260.441V1.889h597v258.552c0 285.452-298.5 397.772-298.5 397.772Z" clip-rule="evenodd"/></svg>