<svg xmlns="http://www.w3.org/2000/svg" width="601" height="662" fill="none" viewBox="0 0 601 662"><path fill="#26a269" fill-rule="evenodd" stroke="#000" stroke-width="3" d="M498.639 518.736C411.822 617.153 300.5 659.074 300.5 659.074c.574-4.595-296.055-111.153-297.351-396.601C2 9.471 2 4.772 2 4.772z" clip-rule="evenodd"/><path fill="#3584e4" fill-rule="evenodd" stroke="#000" stroke-width="3" d="M599.364 1.53v258.553c0 111.327-45.403 196.318-100.793 258.584L2.364 5.146V1.531z" clip-rule="evenodd"/><path fill="#f6d32d" fill-rule="evenodd" d="M279.339 451.162c-4.701 6.267-8.481 12.402-4.933 17.49-1.844 26.16 8.694 47.012 14.351 69.957 7.261-22.853 20.616-44.488 17.041-69.509 2.439-5.979-2.145-11.958-5.382-17.938" clip-rule="evenodd"/><path stroke="#000" stroke-width="3" d="M279.339 451.162c-4.701 6.267-8.481 12.402-4.933 17.49-1.844 26.16 8.694 47.012 14.351 69.957 7.261-22.853 20.616-44.488 17.041-69.509 2.439-5.979-2.145-11.958-5.382-17.938"/><path fill="#f6d32d" fill-rule="evenodd" d="m245.25 420.942-12.023 9.019c-7.72 11.627-12.356 17.407-17.532 24.21-12.759-.314-19.386-7.892-27.05-14.241l-15.528.475c-14.942-6.378-18.808-14.854-20.538-23.736-8.186-10.231-6.931-23.444-7.514-36.077-1.551 3.675 25.224 32.093 21.54 28.007-1.076-1.192-11.93-30.718-12.023-37.501 6.799 5.718 12.719 14.091 16.03 22.786 2.222-9.839-2.226-21.257-5.009-32.28 8.365 10.491 18.749 20.344 19.536 33.229 2.543 5.846 6.066 11.459 3.506 18.514 3.173 2.772 6.345 6.185 9.518 2.848 13.188-6.014 13.969-15.947 20.037-24.21m116.044 28.957 12.022 9.019c7.721 11.627 12.357 17.407 17.533 24.21 12.758-.314 19.385-7.892 27.05-14.241l15.528.475c14.942-6.378 18.808-14.854 20.538-23.736 8.186-10.231 6.931-23.444 7.514-36.077 1.551 3.675-25.224 32.093-21.54 28.007 1.075-1.192 11.929-30.718 12.022-37.501-6.799 5.718-12.718 14.091-16.029 22.786-2.222-9.839 2.225-21.257 5.009-32.28-8.365 10.491-18.749 20.344-19.536 33.229-2.543 5.846-6.066 11.459-3.506 18.514-3.173 2.772-6.345 6.185-9.518 2.848-13.189-6.014-13.969-15.947-20.037-24.21" clip-rule="evenodd"/><path stroke="#000" stroke-width="3" d="m245.25 420.942-12.023 9.019c-7.72 11.627-12.356 17.407-17.532 24.21-12.759-.314-19.386-7.892-27.05-14.241l-15.528.475c-14.942-6.378-18.808-14.854-20.538-23.736-8.186-10.231-6.931-23.444-7.514-36.077-1.551 3.675 25.224 32.093 21.54 28.007-1.076-1.192-11.93-30.718-12.023-37.501 6.799 5.718 12.719 14.091 16.03 22.786 2.222-9.839-2.226-21.257-5.009-32.28 8.365 10.491 18.749 20.344 19.536 33.229 2.543 5.846 6.066 11.459 3.506 18.514 3.173 2.772 6.345 6.185 9.518 2.848 13.188-6.014 13.969-15.947 20.037-24.21m116.044 28.957 12.022 9.019c7.721 11.627 12.357 17.407 17.533 24.21 12.758-.314 19.385-7.892 27.05-14.241l15.528.475c14.942-6.378 18.808-14.854 20.538-23.736 8.186-10.231 6.931-23.444 7.514-36.077 1.551 3.675-25.224 32.093-21.54 28.007 1.075-1.192 11.929-30.718 12.022-37.501-6.799 5.718-12.718 14.091-16.029 22.786-2.222-9.839 2.225-21.257 5.009-32.28-8.365 10.491-18.749 20.344-19.536 33.229-2.543 5.846-6.066 11.459-3.506 18.514-3.173 2.772-6.345 6.185-9.518 2.848-13.189-6.014-13.969-15.947-20.037-24.21"/><path fill="#f6d32d" fill-rule="evenodd" d="M275.781 223.389c8.108-2.512-.381-25.114-4.254-27.824-11.366-7.955-14.729-38.024-5.954-57.445 8.89-19.674 36.34-19.968 46.786.898 7.902 15.783 7.682 32.837-7.416 56.547-5.697 8.946-7.964 22.095-3.643 29.171" clip-rule="evenodd"/><path stroke="#000" stroke-width="3" d="M275.781 223.389c8.108-2.512-.381-25.114-4.254-27.824-11.366-7.955-14.729-38.024-5.954-57.445 8.89-19.674 36.34-19.968 46.786.898 7.902 15.783 7.682 32.837-7.416 56.547-5.697 8.946-7.964 22.095-3.643 29.171"/><path fill="#f6d32d" stroke="#000" stroke-width="3" d="M269.852 148.873a43 43 0 0 1-2.71 5.176c-.98 1.588-2.002 2.973-3.005 4.076-1.003 1.104-1.969 1.904-2.842 2.355s-1.637.545-2.246.275c-.61-.27-1.054-.897-1.308-1.847-.253-.949-.311-2.202-.169-3.687.141-1.485.479-3.172.994-4.966a43 43 0 0 1 2.007-5.487 43 43 0 0 1 2.71-5.175c.98-1.588 2.002-2.973 3.005-4.076 1.003-1.104 1.969-1.904 2.842-2.355s1.637-.545 2.246-.275c.61.269 1.054.897 1.308 1.847.253.949.311 2.202.169 3.687-.141 1.485-.479 3.172-.994 4.966a43 43 0 0 1-2.007 5.486Zm38.412 0a43 43 0 0 0 2.71 5.176c.981 1.588 2.002 2.973 3.006 4.076 1.003 1.104 1.969 1.904 2.842 2.355s1.636.545 2.246.275 1.054-.897 1.307-1.847c.254-.949.311-2.202.17-3.687-.142-1.485-.479-3.172-.994-4.966a43 43 0 0 0-2.007-5.487 43 43 0 0 0-2.71-5.175c-.981-1.588-2.002-2.973-3.005-4.076-1.004-1.104-1.97-1.904-2.843-2.355s-1.636-.545-2.246-.275c-.609.269-1.054.897-1.307 1.847-.254.949-.311 2.202-.17 3.687.142 1.485.48 3.172.995 4.966a43 43 0 0 0 2.006 5.486Z"/><path fill="#f6d32d" fill-rule="evenodd" d="M190.326 284.228c-8.038-9.085-15.629-22.147-16.634-32.051l-10.314-10.44c-5.682-14.977-2.916-23.78 1.48-31.392 1.068-13.069 10.079-26.969 17.544-36.492-3.282 1.576-3.644 45.912-3.485 40.405.046-1.607 11.368-35.689 15.518-40.65.838 8.848-.539 24.235-3.799 32.811 7.539-5.559 11.756-22.122 16.802-32.012-1.114 13.381-.529 32.936-8.018 42.783-1.988 5.985-3.199 12.483-9.228 15.798.326 4.204.255 8.87 4.373 8.665 12.242 4.816 18.911-1.812 27.954-3.563m166.649 46.138c8.037-9.085 15.629-22.147 16.633-32.051l10.314-10.44c5.683-14.977 2.917-23.78-1.479-31.392-1.069-13.069-10.079-26.969-17.544-36.492 3.282 1.576 3.644 45.912 3.485 40.405-.046-1.607-11.369-35.689-15.519-40.65-.838 8.848.54 24.235 3.8 32.811-7.54-5.559-11.757-22.122-16.803-32.012 1.114 13.381.53 32.936 8.019 42.783 1.988 5.985 3.199 12.483 9.228 15.798-.326 4.204-.255 8.87-4.373 8.665-12.242 4.816-18.911-1.812-27.954-3.563" clip-rule="evenodd"/><path stroke="#000" stroke-width="3" d="M190.326 284.228c-8.038-9.085-15.629-22.147-16.634-32.051l-10.314-10.44c-5.682-14.977-2.916-23.78 1.48-31.392 1.068-13.069 10.079-26.969 17.544-36.492-3.282 1.576-3.644 45.912-3.485 40.405.046-1.607 11.368-35.689 15.518-40.65.838 8.848-.539 24.235-3.799 32.811 7.539-5.559 11.756-22.122 16.802-32.012-1.114 13.381-.529 32.936-8.018 42.783-1.988 5.985-3.199 12.483-9.228 15.798.326 4.204.255 8.87 4.373 8.665 12.242 4.816 18.911-1.812 27.954-3.564m166.649 46.139c8.037-9.085 15.629-22.147 16.633-32.051l10.314-10.44c5.683-14.977 2.917-23.78-1.479-31.392-1.069-13.069-10.079-26.969-17.544-36.492 3.282 1.576 3.644 45.912 3.485 40.405-.046-1.607-11.369-35.689-15.519-40.65-.838 8.848.54 24.235 3.8 32.811-7.54-5.559-11.757-22.122-16.803-32.012 1.114 13.381.53 32.936 8.019 42.783 1.988 5.985 3.199 12.483 9.228 15.798-.326 4.204-.255 8.87-4.373 8.665-12.242 4.816-18.911-1.812-27.954-3.564"/><path fill="#f6d32d" fill-rule="evenodd" stroke="#000" stroke-width="3" d="M291.607 218.31c-8.685-25.458 83.755 1.192 64.917 16.253 16.1-15.093 53.071 53.421 34.081 52.02 12.835 1.718 16.095 40.367-1.793 32.288 17.567-1.97 9.091 46.609-5.382 46.638 16.235 6.46-5.5 43.974-23.319 41.257 3.815 8.227-7.985 31.865-21.525 28.701 11.299 6.501-21.349 28.268-29.075 22.203 1.375 5.454-13.45 7.346-17.904 1.564-4.455 4.885-21.403 7.506-17.905-1.564-5.483 7.411-42.408-17.048-30.661-22.203-13.541 3.164-26.291-19.84-22.477-28.067-17.818 2.717-35.069-32.029-23.319-42.525-14.473-.029-21.341-44.387-6.015-46.004-18.375 10.762-15.406-32.288-2.428-32.288-21.232 1.849 22.421-69.65 38.521-54.557-18.838-13.715 71.623-40.519 64.284-13.716Z" clip-rule="evenodd"/><path stroke="#000" stroke-width="3" d="M308.092 457.223c1.338-15.019-6.222-30.305-16.144-43.73 29.255 4.737 38.727-17.23 40.809-28.701 12.611-3.233 13.38-13.825 16.591-26.458 13.165-8.498 7.313-15.228 4.485-26.01 9.82-10.763 2.887-26.01-3.588-36.772 1.269-8.073 4.625-16.145-12.556-24.217-7.053-20.052-29.075-31.06-46.083-28.7-17.007-2.36-39.029 8.648-46.083 28.7-17.18 8.072-13.825 16.144-12.556 24.217-6.475 10.762-13.408 21.525-3.588 32.288-2.828 10.782-8.68 21.996 4.485 30.494 3.212 12.633 3.532 23.225 16.144 26.458 2.082 11.471 10.656 33.438 41.705 29.598-9.922 13.425-17.93 27.814-16.592 42.833m-50.412-226.572c4.2 13.957 10.96 29.107 19.918 40.684m-57.633 14.777c13.312 7.71 32.344 7.024 45.656 9.331m-45.457 24.414c11.838 7.662 30.14 6.347 41.978 8.562M195.81 363.53c13.3-7.72 26.938.287 38.108-4.933m-13.367 48.237c2.815-9.704 19.383-15.059 28.451-21.648m-7.089 49.669c4.41-14.885 11.756-18.312 19.755-27.64m96.688-174.584c-4.201 13.956-10.813 27.127-19.77 38.704m54.269 14.722c-13.312 7.711-28.981 7.079-42.293 9.386m42.824 24.619c-11.838 7.662-26.959 10.604-38.797 12.819m30.212 33.153c-13.3-7.719-24.336-2.217-35.507-7.437m9.571 46.76c-2.815-9.704-17.49-14.216-26.557-20.805m6.672 52.305c-4.409-14.885-9.042-21.615-17.041-30.943m11.266-21.57c-6.278 0-18.832-6.576-18.832-6.576s-8.238-10.253-21.242-10.125c-11.252.11-23.453 4.716-26.531 10.871 0 0-10.314 5.83-16.592 5.83m104.722-51.123-31.391 4.484c3.416-5.692-15.157-6.391-31.733-12.108-16.707-5.762-32.409 6.698-31.732 12.108l-31.391-9.417m109.206-56.056c-3.944 9.988.394 14.173-16.003 26.991 0-2.792-16.834-8.234-30.08-6.612-15.376 1.884-28.894 1.402-29.445 4.709-16.397-12.818-12.693-15.1-16.638-25.088m45.726-58.225.035 29.752m.322-1.053c25.41 11.546 25.829 28.278 29.856 56.292 12.282 10.044 5.229 27.199.98 39.604 4.422 15.306-3.301 25.597-7.623 38.717-3.494 15.042-13.128 27.83-23.213 37.071-10.084-9.241-19.718-21.282-23.212-36.324-4.322-13.121-12.045-24.158-7.623-39.464-4.249-12.405-10.034-30.828 2.248-40.872 5.303-27.904-1.446-40.973 28.587-55.024Z"/><path stroke="#000" stroke-width="3" d="M300.5 657.855S2 545.535 2 260.083V1.531h597v258.552c0 285.452-298.5 397.772-298.5 397.772Z" clip-rule="evenodd"/></svg>